<svg width="36" height="36" viewBox="0 0 36 36" fill="none" xmlns="http://www.w3.org/2000/svg">
<rect x="6.7998" y="4" width="22.4" height="20.6957" rx="2.45922" fill="#88A6FF"/>
<path d="M13.7849 9.70566L15.6546 15.4122C15.7572 15.7253 16.2001 15.7253 16.3027 15.4122L18.1724 9.70566L20.0431 15.2369C20.1476 15.5459 20.5846 15.5459 20.6891 15.2369L22.5598 9.70566" stroke="white" stroke-width="1.4" stroke-linecap="round" stroke-linejoin="round"/>
<path d="M12.7351 11.1228L23.265 11.1228" stroke="white" stroke-width="1.4" stroke-linecap="round"/>
<path d="M4.93335 18.4127C4.93335 17.3806 6.01612 16.7067 6.94216 17.1623L16.9143 22.069C17.5989 22.4059 18.4011 22.4059 19.0857 22.069L29.0579 17.1623C29.9839 16.7067 31.0667 17.3806 31.0667 18.4127V29.5408C31.0667 30.8989 29.9657 32 28.6075 32H7.39257C6.03438 32 4.93335 30.899 4.93335 29.5408V18.4127Z" fill="#4472FF"/>
</svg>
