<svg width="36" height="36" viewBox="0 0 36 36" fill="none" xmlns="http://www.w3.org/2000/svg">
<path d="M24.6725 24.7027L5.21425 22.8471L5.894 15.7189C6.27972 11.674 9.87143 8.70765 13.9163 9.09336L18.7267 9.55208C22.7716 9.9378 25.7379 13.5295 25.3522 17.5744L24.6725 24.7027Z" fill="#FF87CF"/>
<path fill-rule="evenodd" clip-rule="evenodd" d="M16.3539 8.36383C17.0944 8.43445 17.7521 7.89134 17.8227 7.15076C17.8933 6.41018 17.3502 5.75257 16.6096 5.68194C15.869 5.61132 15.2114 6.15443 15.1408 6.89501C15.0702 7.63559 15.6133 8.29321 16.3539 8.36383ZM16.1315 10.6955C18.1599 10.889 19.961 9.40146 20.1544 7.37311C20.3478 5.34475 18.8603 3.54365 16.832 3.35022C14.8036 3.1568 13.0025 4.64431 12.8091 6.67266C12.6157 8.70102 14.1032 10.5021 16.1315 10.6955Z" fill="#FF87CF"/>
<ellipse cx="8.50656" cy="1.61795" rx="8.50656" ry="1.61795" transform="matrix(0.994754 0.102295 -0.0883311 0.996091 6.07593 25.6996)" fill="#C12883"/>
<circle cx="14.619" cy="28.4826" r="4.54634" transform="rotate(5.44724 14.619 28.4826)" fill="#FFCB45"/>
<path fill-rule="evenodd" clip-rule="evenodd" d="M14.2477 30.8944C20.6103 31.502 25.8918 30.7 26.0442 29.1031C26.1967 27.5061 21.1625 25.719 14.7999 25.1114C8.43737 24.5038 3.15587 25.3058 3.00338 26.9028C2.85088 28.4997 7.88513 30.2869 14.2477 30.8944ZM14.3619 29.7066C18.7286 30.1235 22.3348 29.7667 22.4167 28.9094C22.4985 28.0522 19.025 27.0192 14.6583 26.6022C10.2916 26.1852 6.68536 26.5421 6.6035 27.3994C6.52164 28.2566 9.99518 29.2896 14.3619 29.7066Z" fill="#FF64C0"/>
<path fill-rule="evenodd" clip-rule="evenodd" d="M26.0262 29.1906C25.989 27.6167 21.0237 25.884 14.7787 25.2876C8.61286 24.6988 3.46228 25.4338 3.01086 26.9332L3.32367 23.8168H3.32437C3.51524 22.2321 8.78069 21.4384 15.119 22.0437C21.4026 22.6438 26.3907 24.3943 26.3666 25.9759L26.3738 25.976L26.0448 29.1906H26.0262Z" fill="#FFBAE4"/>
<path fill-rule="evenodd" clip-rule="evenodd" d="M10.2808 27.1171C10.187 27.4157 10.1228 27.7286 10.0919 28.0527C9.85354 30.5523 11.6866 32.7718 14.1861 33.0101C16.6856 33.2485 18.9051 31.4154 19.1435 28.9159C19.1655 28.6848 19.1699 28.4562 19.1576 28.2312L10.2808 27.1171Z" fill="#FFCB45"/>
<path d="M20.1597 16.2595L24.891 8.82453C25.6198 7.67935 27.2951 7.68988 28.0094 8.84414L32.6103 16.2791C33.3692 17.5054 32.4872 19.0886 31.045 19.0886H21.7127C20.2602 19.0886 19.3799 17.485 20.1597 16.2595Z" fill="#EF4447"/>
<rect x="25.6372" y="10.7244" width="1.46412" height="4.58164" rx="0.732059" fill="white"/>
<rect x="25.4679" y="16.2062" width="1.76656" height="1.75831" rx="0.879155" fill="white"/>
</svg>
