<svg width="36" height="36" viewBox="0 0 36 36" fill="none" xmlns="http://www.w3.org/2000/svg">
<path d="M24.3972 4.91477L22.741 3.72427L6.69739 30.3055L7.46511 31.4677C8.16389 32.5255 9.30818 33.2056 10.5713 33.3137L18.9647 34.0325C21.2253 34.2261 23.2219 32.5669 23.4452 30.309L25.677 7.74632C25.7862 6.64173 25.2985 5.56263 24.3972 4.91477Z" fill="#C12883"/>
<rect width="15.6418" height="29.7115" rx="3.14033" transform="matrix(-0.995433 -0.09546 -0.09546 0.995433 24.4066 3.49316)" fill="#FFB1E0"/>
<rect x="-0.587274" y="0.484494" width="14.5651" height="28.6348" rx="2.60199" transform="matrix(-0.995433 -0.09546 -0.09546 0.995433 23.281 3.43932)" stroke="#FF64C0" stroke-width="1.07668"/>
<path d="M20.4268 4.03594L13.3032 3.3962L13.2768 3.67325C13.2389 4.07043 13.5324 4.42284 13.9328 4.4588L19.6069 4.96836C20.0073 5.00432 20.3625 4.71017 20.4004 4.31299L20.4268 4.03594Z" fill="#FF64C0" stroke="#FF64C0" stroke-width="0.18249"/>
<path d="M21.4546 20.1237C21.6129 19.5248 22.2286 19.1693 22.8264 19.3316L23.9596 19.6393C24.2782 19.7258 24.6187 19.6669 24.8897 19.4784L25.8479 18.8118C26.3519 18.4612 27.0444 18.5834 27.398 19.0853L28.1006 20.0823C28.2874 20.3475 28.5803 20.5183 28.903 20.5503L30.1072 20.6696C30.7108 20.7295 31.1562 21.2603 31.1103 21.8651L31.0173 23.0899C30.9929 23.4113 31.1086 23.7277 31.3347 23.9574L32.1989 24.8356C32.6264 25.2701 32.6264 25.9671 32.199 26.4016L31.3673 27.2471C31.1377 27.4805 31.0221 27.8029 31.0512 28.129L31.1574 29.3211C31.2122 29.9366 30.7566 30.4796 30.1409 30.5325L28.9827 30.632C28.6527 30.6604 28.3524 30.8338 28.1628 31.1054L27.4975 32.0587C27.1438 32.5654 26.4459 32.6885 25.9402 32.3332L24.9609 31.6452C24.693 31.457 24.356 31.3959 24.0391 31.478L22.891 31.7755C22.301 31.9284 21.6974 31.5799 21.5349 30.9925L21.2065 29.805C21.1205 29.4943 20.9044 29.2359 20.6138 29.0963L19.5067 28.5645C18.9599 28.3019 18.7229 27.6507 18.9729 27.0981L19.4716 25.9955C19.6053 25.7 19.6038 25.3609 19.4676 25.0666L18.9554 23.9596C18.6975 23.4024 18.938 22.7416 19.4937 22.4804L20.55 21.9839C20.8488 21.8435 21.07 21.5781 21.1544 21.2589L21.4546 20.1237Z" fill="#8155F8"/>
<circle cx="1.103" cy="1.103" r="1.103" transform="matrix(0.866025 -0.5 -0.5 -0.866025 26.434 29.3608)" fill="white"/>
<circle cx="1.103" cy="1.103" r="1.103" transform="matrix(0.866025 -0.5 -0.5 -0.866025 23.5651 24.3912)" fill="white"/>
<path fill-rule="evenodd" clip-rule="evenodd" d="M21.9602 27.3558C21.7774 27.0393 21.8859 26.6345 22.2024 26.4518L27.9337 23.1428C28.2503 22.96 28.655 23.0685 28.8378 23.385C29.0205 23.7015 28.9121 24.1063 28.5955 24.289L22.8642 27.598C22.5477 27.7808 22.1429 27.6723 21.9602 27.3558Z" fill="white"/>
</svg>
