<svg width="36" height="36" viewBox="0 0 36 36" fill="none" xmlns="http://www.w3.org/2000/svg">
<g clip-path="url(#clip0_241_8551)">
<path d="M18.4658 31.9998C25.94 31.9998 31.999 25.9408 31.999 18.4666C31.999 10.9925 25.94 4.93347 18.4658 4.93347C10.9916 4.93347 4.93262 10.9925 4.93262 18.4666C4.93262 25.9408 10.9916 31.9998 18.4658 31.9998Z" fill="#147E49"/>
<path d="M7.02929 31.946L15.3875 29.7037L7.23068 21.5373L4.99109 29.9054C4.65952 31.1443 5.79185 32.2779 7.02929 31.946Z" fill="#147E49"/>
<path d="M17.0666 30.1332C24.2831 30.1332 30.1332 24.2831 30.1332 17.0666C30.1332 9.85011 24.2831 4 17.0666 4C9.85011 4 4 9.85011 4 17.0666C4 24.2831 9.85011 30.1332 17.0666 30.1332Z" fill="#35C27B"/>
<path d="M6.02438 30.0814L14.0945 27.9165L6.21883 20.0316L4.05646 28.1111C3.73632 29.3073 4.82961 30.4019 6.02438 30.0814Z" fill="#35C27B"/>
<path d="M21.121 19.5774L18.5264 19.0582C18.1311 18.9812 17.7316 19.1276 17.4832 19.445L16.3167 20.9426C14.8647 20.1163 13.6404 18.8957 12.8113 17.447L14.2037 16.5799C14.5741 16.3498 14.7633 15.9236 14.6858 15.4931L14.1666 12.6364C14.0746 12.1336 13.6371 11.7688 13.1263 11.7688H10.5303C9.94726 11.7688 9.47266 12.2435 9.47266 12.8265C9.47266 14.4504 9.80643 16.0203 10.4646 17.492C11.6044 20.0431 13.6329 22.0852 16.1763 23.2439C17.6673 23.9227 19.2615 24.2673 20.9135 24.2673C21.4965 24.2673 21.9711 23.7931 21.9711 23.2101V20.614C21.9711 20.1107 21.6134 19.675 21.121 19.5774Z" fill="white"/>
<path d="M17.4258 10.6326C20.747 10.6326 23.4393 13.3281 23.4393 16.6532" stroke="white" stroke-width="1.59071" stroke-linecap="round"/>
<path d="M17.4258 12.905C19.3083 12.905 20.8345 14.4311 20.8345 16.3137" stroke="white" stroke-width="1.59071" stroke-linecap="round"/>
</g>
<defs>
<clipPath id="clip0_241_8551">
<rect width="36" height="36" fill="white"/>
</clipPath>
</defs>
</svg>
