<svg width="36" height="36" viewBox="0 0 36 36" fill="none" xmlns="http://www.w3.org/2000/svg">
<path d="M7.49225 30.988L5.99976 29.0976L6.7542 27.8739L9.4131 29.8076L7.49225 30.988Z" fill="#147E49"/>
<path d="M27 7.28577L25.2452 5.53137L24.1407 8.75133H27V7.28577Z" fill="#147E49"/>
<path d="M27.678 9.40674C27.8278 7.84405 26.6758 6.45854 25.112 6.32076L12.1083 5.17508C10.5666 5.03924 9.20221 6.16839 9.04735 7.70833L6.90964 28.9663C6.75017 30.5522 7.93249 31.9563 9.52233 32.0691L22.6457 33.0006C24.1759 33.1092 25.5135 31.9776 25.6599 30.4505L27.678 9.40674Z" fill="#147E49"/>
<path d="M25.9046 7.62049C26.0544 6.0578 24.9024 4.67229 23.3386 4.53451L10.3477 3.38996C8.80093 3.25368 7.43374 4.3905 7.28551 5.9362L5.27198 26.9328C5.12212 28.4955 6.27417 29.881 7.83798 30.0188L20.8288 31.1634C22.3756 31.2997 23.7428 30.1628 23.891 28.6171L25.9046 7.62049Z" fill="#66D793"/>
<path d="M30.7763 19.0662L29.3233 17.6195C28.8679 17.166 28.1303 17.1663 27.675 17.6201L20.2309 25.0714C19.9213 25.3801 19.7394 25.7935 19.7213 26.2297L19.6519 27.8605C19.6309 28.3556 20.0286 28.7683 20.5253 28.7684L22.1305 28.7684C22.6016 28.7684 23.0529 28.5789 23.3818 28.2427L30.7868 20.6989C31.2328 20.2436 31.2282 19.5158 30.7763 19.0662Z" fill="#FFD66C"/>
<mask id="mask0_241_8554" style="mask-type:alpha" maskUnits="userSpaceOnUse" x="19" y="17" width="13" height="12">
<path d="M30.7763 19.0637L29.3233 17.617C28.8679 17.1635 28.1303 17.1638 27.675 17.6176L20.2309 25.0689C19.9213 25.3777 19.7394 25.7911 19.7213 26.2273L19.6519 27.8581C19.6309 28.3531 20.0286 28.7659 20.5253 28.7659L22.1305 28.766C22.6016 28.766 23.0529 28.5764 23.3818 28.2402L30.7868 20.6965C31.2328 20.2412 31.2282 19.5133 30.7763 19.0637Z" fill="#C2C6EB"/>
</mask>
<g mask="url(#mask0_241_8554)">
<path d="M23.8893 27.7396L19.5143 23.3646L16.0667 26.9779L20.3592 31.2697L23.8893 27.7396Z" fill="#FFAF33"/>
<path d="M35.0315 18.8088L30.6565 14.4338L27.2089 18.0471L31.5014 22.3389L35.0315 18.8088Z" fill="#FFAF33"/>
</g>
<path d="M15.4959 10.4337L10.5566 9.84458" stroke="white" stroke-width="1.88889" stroke-linecap="round"/>
<path d="M21.4812 15.6985L10.1329 14.4024" stroke="white" stroke-width="1.88889" stroke-linecap="round"/>
<path d="M21.0388 20.3643L9.69054 19.0682" stroke="white" stroke-width="1.88889" stroke-linecap="round"/>
</svg>
