<svg width="36" height="36" viewBox="0 0 36 36" fill="none" xmlns="http://www.w3.org/2000/svg">
<path d="M10.7484 29.8541C16.1803 32.8413 23.5864 29.803 27.2902 23.0678C30.9941 16.3327 29.5932 8.45117 24.1612 5.46399C18.7293 2.4768 11.3232 5.51512 7.61939 12.2503C3.91554 18.9854 5.31645 26.8669 10.7484 29.8541Z" fill="#0F67DF"/>
<path d="M24.8326 5.91631L22.1865 4.46113L8.78969 28.7884L10.4641 29.694L24.8326 5.91631Z" fill="#0F67DF"/>
<path d="M8.81384 28.7855C14.23 31.764 21.6236 28.7182 25.3278 21.9824C29.032 15.2466 27.6441 7.37163 22.2279 4.3931C16.8117 1.41457 9.41818 4.46042 5.71398 11.1962C2.00979 17.932 3.39764 25.8069 8.81384 28.7855Z" fill="#A3CAFF"/>
<path d="M13.4829 19.5605C16.7154 18.825 19.586 17.2783 21.6242 14.5327C23.0397 12.6368 25.0067 10.3032 25.7642 7.85215C24.9077 6.41453 23.7312 5.21978 22.2279 4.3931C16.8115 1.41443 9.41442 4.46725 5.71398 11.1962C4.19028 13.9669 3.54231 16.897 3.65391 19.6327C6.86048 20.3006 10.2129 20.3077 13.4829 19.5605Z" fill="#A3CAFF"/>
<path d="M22.884 20.3498C20.0406 25.5202 14.4112 27.9018 10.3309 25.658C6.25066 23.4141 5.24675 17.3846 8.0901 12.2142C10.9334 7.04384 16.5629 4.6622 20.6431 6.90604C24.7234 9.14989 25.7273 15.1794 22.884 20.3498Z" fill="#0F67DF"/>
<path d="M23.1144 20.7598C20.3391 25.8065 14.9564 28.1949 11.1376 26.0949C7.29576 23.9822 6.45284 18.1701 9.22816 13.1234C12.0035 8.07666 17.3863 5.68824 21.205 7.78827C25.0469 9.90103 25.8898 15.7131 23.1144 20.7598Z" fill="#5FA3FF"/>
<path d="M20.9933 11.5006L20.6767 11.0058L18.7319 12.8885L15.652 15.8296L16.5982 16.3792L20.8912 12.3285C21.1197 12.1129 21.1626 11.7652 20.9933 11.5006Z" fill="#0F67DF"/>
<path d="M15.5906 14.2879L16.2292 14.5413L16.5188 14.8051L16.305 15.1139L15.687 14.7961L15.5906 14.2879Z" fill="#0F67DF"/>
<path d="M14.0842 17.4938L14.7228 17.7472L15.0124 18.011L14.8469 18.3139L14.0555 18.0051L14.0842 17.4938Z" fill="#0F67DF"/>
<ellipse cx="1.71042" cy="2.00947" rx="1.71042" ry="2.00947" transform="matrix(-0.962014 -0.272999 -0.272999 0.962014 17.7196 14.958)" fill="#0F67DF"/>
<ellipse cx="1.71042" cy="2.00947" rx="1.71042" ry="2.00947" transform="matrix(-0.960607 -0.277909 -0.277909 0.960607 17.0602 14.7043)" fill="white"/>
<path d="M19.3771 10.6081C19.6191 10.3822 19.9917 10.3728 20.2448 10.5862L20.5391 10.8344C20.84 11.0882 20.85 11.5484 20.5605 11.8151L16.0991 15.9244C15.8335 16.1691 15.4199 16.1521 15.1752 15.8865L14.9439 15.6353C14.7004 15.371 14.7159 14.9597 14.9786 14.7144L19.3771 10.6081Z" fill="white"/>
<path d="M16.8832 9.99669L16.5742 9.7464L16.4082 9.78215L16.5461 10.3849L16.8832 10.1882V9.99669Z" fill="#0F67DF"/>
<rect x="16.0521" y="9.71426" width="1.28591" height="2.44627" rx="0.642953" transform="rotate(16.2147 16.0521 9.71426)" fill="#0F67DF"/>
<path d="M15.7741 12.138L15.4728 11.88L15.5264 11.4944H15.8916L15.9172 11.9311L15.7741 12.138Z" fill="#0F67DF"/>
<rect x="15.7751" y="9.48462" width="1.28591" height="2.44627" rx="0.642953" transform="rotate(16.2147 15.7751 9.48462)" fill="white"/>
<path d="M21.4476 17.5034V17.9044L20.8781 17.8789L21.0619 17.4089L21.4476 17.5034Z" fill="#0F67DF"/>
<path d="M19.0113 17.2577V17.651L19.5808 17.6331L19.3969 17.1632L19.0113 17.2577Z" fill="#0F67DF"/>
<rect x="21.5432" y="17.284" width="1.28591" height="2.44799" rx="0.642953" transform="rotate(98.3919 21.5432 17.284)" fill="#0F67DF"/>
<rect x="21.5432" y="16.9255" width="1.28591" height="2.44799" rx="0.642953" transform="rotate(98.3919 21.5432 16.9255)" fill="white"/>
<path d="M29.9298 21.6571L28.2378 20.8107L27.4906 21.9168L29.1597 22.0342L29.9298 21.6571Z" fill="#D93629"/>
<path d="M25.3656 34.4378L23.6799 33.8119L24.8455 32.842L25.8536 33.8893L25.3656 34.4378Z" fill="#D93629"/>
<ellipse cx="27.2142" cy="27.9059" rx="5.95755" ry="6.91123" transform="rotate(6.07736 27.2142 27.9059)" fill="#A52123"/>
<ellipse cx="25.9627" cy="27.31" rx="6.39683" ry="6.91123" transform="rotate(6.07736 25.9627 27.31)" fill="#EF564E"/>
<path d="M27.4703 22.9963L27.0473 22.7962L26.9031 23.2905L26.4546 27.6787L25.0603 28.3061L25.3227 28.5818C25.4155 28.6792 25.5421 28.7372 25.6764 28.7439L26.7345 28.7963C26.9555 28.8072 27.1469 28.6446 27.1718 28.4248L27.7343 23.4705C27.7568 23.2722 27.6507 23.0816 27.4703 22.9963Z" fill="#D9D9D9"/>
<path d="M27.3332 23.321C27.3693 23.019 27.1417 22.7498 26.8379 22.7353L26.085 22.6993C25.8104 22.6861 25.5724 22.8874 25.5397 23.1604L24.9689 27.9267C24.9327 28.2287 25.1604 28.4979 25.4642 28.5125L26.3632 28.5554C26.5555 28.5646 26.7221 28.4237 26.745 28.2327L27.3332 23.321Z" fill="white"/>
<path d="M25.8663 29.3948L26.2811 29.4808L26.4849 29.6103L26.3879 29.8205L25.9789 29.6932L25.8663 29.3948Z" fill="#D9D9D9"/>
<path d="M25.2978 31.5042L25.7126 31.5902L25.9164 31.7197L25.8481 31.9212L25.3347 31.8177L25.2978 31.5042Z" fill="#D9D9D9"/>
<ellipse cx="1.05444" cy="1.2388" rx="1.05444" ry="1.2388" transform="matrix(-0.994667 -0.103142 -0.103142 0.994667 27.2354 29.5785)" fill="#D9D9D9"/>
<ellipse cx="1.05444" cy="1.2388" rx="1.05444" ry="1.2388" transform="matrix(-0.994127 -0.108221 -0.108221 0.994127 26.8057 29.4961)" fill="white"/>
</svg>
