<svg width="36" height="36" viewBox="0 0 36 36" fill="none" xmlns="http://www.w3.org/2000/svg">
<path d="M30.3868 7.52927L28.2696 7L28.7942 10.3224L26.3461 25.0108H20.0509L17.7776 25.5353L15.2406 29.1407L17.6988 29.408C18.3342 29.4771 18.9664 29.2528 19.4162 28.7988L20.0509 28.1583H28.0062C29.2519 28.1583 30.2989 27.2229 30.4388 25.9852L32.2256 10.1793C32.3635 8.95991 31.5773 7.82688 30.3868 7.52927Z" fill="#A62123"/>
<path d="M30.4389 7.52927L28.3218 7L28.8464 10.3224L26.3982 25.0108L20.103 28.1583H28.0583C29.304 28.1583 30.351 27.2229 30.491 25.9852L32.2778 10.1793C32.4156 8.95991 31.6294 7.82688 30.4389 7.52927Z" fill="#A52123"/>
<path d="M20.0532 28.1579L18.3278 26.6893L18.137 26.5399L17.1656 26.9656L15.293 28.5785V29.1448L17.8717 29.4239C18.4009 29.4811 18.9274 29.2942 19.302 28.9161L20.0532 28.1579Z" fill="#790E10"/>
<path d="M30.156 9.32192L28.5073 24.7097C28.393 25.776 27.4932 26.5845 26.4208 26.5845H18.8952C18.538 26.5845 18.1943 26.7211 17.9347 26.9664L15.8295 28.9545C15.5029 29.263 14.9742 29.1879 14.7464 28.8006L13.8484 27.2741C13.5971 26.8469 13.1384 26.5845 12.6426 26.5845H6.33516C5.0878 26.5845 4.11585 25.5029 4.24874 24.2626L5.89747 8.87482C6.01171 7.80856 6.91153 7 7.98389 7H28.0696C29.3169 7 30.2889 8.08166 30.156 9.32192Z" fill="#FC6062"/>
<mask id="mask0_719_17796" style="mask-type:alpha" maskUnits="userSpaceOnUse" x="4" y="7" width="27" height="23">
<path d="M30.156 9.32278L28.5073 24.7106C28.393 25.7768 27.4932 26.5854 26.4208 26.5854H18.8952C18.538 26.5854 18.1943 26.722 17.9347 26.9672L15.8295 28.9554C15.5029 29.2639 14.9742 29.1888 14.7464 28.8015L13.8484 27.275C13.5971 26.8477 13.1384 26.5854 12.6426 26.5854H6.33516C5.0878 26.5854 4.11585 25.5037 4.24874 24.2634L5.89747 8.87567C6.01171 7.80941 6.91153 7.00085 7.98389 7.00085H28.0696C29.3169 7.00085 30.2889 8.08251 30.156 9.32278Z" fill="#EF4447"/>
</mask>
<g mask="url(#mask0_719_17796)">
<path d="M23.0046 28.916L20.9566 6.22691L7.87643 4.0321L3.20173 8.18728L2.58788 27.6411L11.3707 28.916L16.0454 31.7963L23.0046 28.916Z" fill="#EF4447"/>
</g>
<path d="M19.1568 10.4644L18.5395 10.1694L18.3972 10.8579L17.7986 16.7152L15.9374 17.5527L16.2877 17.9207C16.4115 18.0507 16.5805 18.1281 16.7598 18.137L18.1723 18.2069C18.4672 18.2215 18.7226 18.0045 18.7559 17.7112L19.507 11.0963C19.5369 10.8326 19.3963 10.5788 19.1568 10.4644Z" fill="#D9D9D9"/>
<path d="M18.9686 10.9077C19.0168 10.5046 18.7129 10.1453 18.3075 10.1259L17.3025 10.0778C16.9359 10.0603 16.6182 10.329 16.5746 10.6933L15.8126 17.0554C15.7644 17.4585 16.0683 17.8179 16.4737 17.8373L17.6739 17.8946C17.9304 17.9069 18.1529 17.7188 18.1834 17.4638L18.9686 10.9077Z" fill="white"/>
<path d="M17.0026 19.0215L17.5562 19.1363L17.8284 19.3091L17.6989 19.5897L17.1529 19.4198L17.0026 19.0215Z" fill="#D9D9D9"/>
<path d="M16.2387 21.834L16.7923 21.9488L17.0644 22.1216L16.9732 22.3906L16.2879 22.2525L16.2387 21.834Z" fill="#D9D9D9"/>
<ellipse cx="1.4075" cy="1.65355" rx="1.4075" ry="1.65355" transform="matrix(-0.994667 -0.103139 -0.103144 0.994667 18.8246 19.2578)" fill="#D9D9D9"/>
<ellipse cx="1.4075" cy="1.65355" rx="1.4075" ry="1.65355" transform="matrix(-0.994127 -0.108218 -0.108223 0.994127 18.2604 19.1493)" fill="white"/>
</svg>
