<svg width="36" height="36" viewBox="0 0 36 36" fill="none" xmlns="http://www.w3.org/2000/svg">
<path d="M20.631 4H15.3684C14.7967 4 14.3333 4.55901 14.3333 5.24858V30.7514C14.3333 31.441 14.7967 32 15.3684 32H20.631C21.2026 32 21.6661 31.441 21.6661 30.7514V5.24858C21.6661 4.55901 21.2026 4 20.631 4Z" fill="#FF8F98"/>
<path d="M6.03459 31.9979H11.2982C11.8696 31.9979 12.3328 31.4392 12.3328 30.75V20.4809C12.3328 19.7917 11.8696 19.2329 11.2982 19.2329H6.03459C5.4632 19.2329 5 19.7917 5 20.4809V30.75C5 31.4392 5.4632 31.9979 6.03459 31.9979Z" fill="#FF8F98"/>
<path d="M24.7021 31.9969H29.9647C30.5364 31.9969 30.9998 31.4379 30.9998 30.7483V15.9573C30.9998 15.2677 30.5364 14.7087 29.9647 14.7087H24.7021C24.1304 14.7087 23.667 15.2677 23.667 15.9573V30.7483C23.667 31.4379 24.1304 31.9969 24.7021 31.9969Z" fill="#FF515E"/>
</svg>
