<svg width="36" height="36" viewBox="0 0 36 36" fill="none" xmlns="http://www.w3.org/2000/svg">
<rect x="17.4976" y="2.23468" width="0.77918" height="7.35563" fill="#D9D9D9"/>
<rect x="23.8114" y="3.56827" width="0.77918" height="7.35563" fill="#D9D9D9"/>
<rect x="24.5944" y="3.56827" width="0.427702" height="7.35563" fill="#B2B2B2"/>
<rect x="18.2765" y="3.16702" width="0.427702" height="7.75369" fill="#B2B2B2"/>
<path d="M11.549 33.1549L10.3186 33.0017L10.359 32.0539L11.549 32.3842V33.1549Z" fill="#D4D4D4"/>
<ellipse cx="10.6199" cy="31.7207" rx="1.0142" ry="1.31487" transform="rotate(13.2119 10.6199 31.7207)" fill="#D4D4D4"/>
<path d="M12.9015 32.1374C12.7355 32.8444 12.1589 33.3137 11.6136 33.1857C11.0683 33.0577 10.7608 32.3808 10.9268 31.6738C11.0927 30.9669 11.6694 30.4975 12.2147 30.6256C12.76 30.7536 13.0675 31.4305 12.9015 32.1374Z" fill="#AFAFAF"/>
<path d="M12.6135 32.0969C12.5046 32.561 12.1261 32.8691 11.7681 32.785C11.4102 32.701 11.2083 32.2567 11.3173 31.7926C11.4262 31.3286 11.8047 31.0205 12.1626 31.1045C12.5206 31.1886 12.7225 31.6329 12.6135 32.0969Z" fill="#D4D4D4"/>
<path d="M22.1527 34.7119L20.9602 34.5614L20.9627 33.6109L22.1527 33.9412V34.7119Z" fill="#D4D4D4"/>
<ellipse cx="21.2261" cy="33.2738" rx="1.0142" ry="1.31487" transform="rotate(13.2119 21.2261 33.2738)" fill="#D4D4D4"/>
<path d="M23.4999 33.6984C23.3339 34.4053 22.7573 34.8747 22.212 34.7466C21.6667 34.6186 21.3592 33.9417 21.5252 33.2348C21.6911 32.5278 22.2677 32.0585 22.813 32.1865C23.3583 32.3145 23.6659 32.9914 23.4999 33.6984Z" fill="#AFAFAF"/>
<path d="M23.2197 33.654C23.1108 34.118 22.7323 34.4261 22.3743 34.3421C22.0164 34.258 21.8145 33.8137 21.9235 33.3497C22.0324 32.8856 22.4109 32.5775 22.7688 32.6616C23.1268 32.7456 23.3287 33.1899 23.2197 33.654Z" fill="#D4D4D4"/>
<path d="M26.0117 33.0083L24.8192 32.8578L24.8217 31.9073L26.0117 32.2376V33.0083Z" fill="#D4D4D4"/>
<ellipse cx="25.0852" cy="31.5702" rx="1.0142" ry="1.31487" transform="rotate(13.2119 25.0852 31.5702)" fill="#D4D4D4"/>
<path d="M27.3589 31.9947C27.1929 32.7017 26.6163 33.171 26.071 33.043C25.5257 32.915 25.2182 32.2381 25.3842 31.5311C25.5501 30.8242 26.1267 30.3548 26.6721 30.4829C27.2174 30.6109 27.5249 31.2878 27.3589 31.9947Z" fill="#AFAFAF"/>
<path d="M27.0787 31.9503C26.9698 32.4144 26.5913 32.7225 26.2333 32.6384C25.8754 32.5544 25.6735 32.1101 25.7825 31.646C25.8914 31.182 26.2699 30.8739 26.6279 30.9579C26.9858 31.0419 27.1877 31.4863 27.0787 31.9503Z" fill="#D4D4D4"/>
<mask id="mask0_241_8553" style="mask-type:alpha" maskUnits="userSpaceOnUse" x="8" y="8" width="20" height="25">
<path d="M8 29.8932V10.5592C8 10.1871 8.23424 9.85533 8.58486 9.7308L11.9123 8.54902C12.4333 8.36396 12.9907 8.30439 13.539 8.37514L27.1161 10.1268C27.5545 10.1834 27.8827 10.5567 27.8827 10.9987V30.5136C27.8827 30.88 27.6554 31.208 27.3124 31.3366L23.555 32.7461C23.2754 32.851 22.9737 32.8829 22.6783 32.8389L8.74947 30.7626C8.31878 30.6984 8 30.3286 8 29.8932Z" fill="#8DC7F1"/>
</mask>
<g mask="url(#mask0_241_8553)">
<path d="M29.3485 9.65619L21.5701 12.1202V33.6483L29.5499 30.4457L29.3485 9.65619Z" fill="#F49B0F"/>
<path d="M7.68921 9.90009L22.3907 11.4335C22.8385 11.4802 23.1786 11.8577 23.1786 12.3079V33.7933L7.68921 31.4792V9.90009Z" fill="#FFD66C"/>
<path d="M12.3989 8.09442L28.9549 9.78676L23.074 11.9379L7.01648 9.84484L12.3989 8.09442Z" fill="#FAE1A0"/>
</g>
<path d="M19.9365 15.8853L19.9365 27.4036" stroke="#FFAF33" stroke-width="1.44444" stroke-linecap="round"/>
<path d="M15.3693 15.1261L15.3693 26.5646" stroke="#FFAF33" stroke-width="1.44444" stroke-linecap="round"/>
<path d="M11.2701 14.4259V25.7241" stroke="#FFAF33" stroke-width="1.44444" stroke-linecap="round"/>
<path d="M16.699 2.56632L18.3826 1.99999L25.6066 2.93703L23.9771 3.47778L16.699 2.56632Z" fill="#5793CF"/>
<path d="M16.7107 2.56119L24.0107 3.46447V4.58243L16.7107 3.61139V2.56119Z" fill="#2266AB"/>
<path d="M25.5991 3.98994V2.92703L23.9845 3.47517V4.58888L25.5991 3.98994Z" fill="#012D59"/>
</svg>
