<svg width="16" height="16" viewBox="0 0 16 16" fill="none" xmlns="http://www.w3.org/2000/svg">
<g clip-path="url(#clip0_15593_408467)">
<path d="M14.8122 8.71075L14.6584 9.4178C14.5139 10.0807 13.8796 10.5118 13.1766 10.4254L11.7762 10.253C11.1666 10.1776 10.6569 9.72948 10.5163 9.14536L10.2579 8.06891C10.1747 7.72198 9.93658 7.4254 9.59507 7.32211C9.10531 7.17399 8.57889 7.10092 8.01596 7.1027C7.47471 7.10005 6.93706 7.17647 6.41986 7.32865C6.05654 7.43555 5.80411 7.753 5.72838 8.12407L5.54212 9.03677C5.42526 9.60686 4.94058 10.0223 4.34046 10.0663L2.94152 10.1706C2.24309 10.2223 1.58746 9.76164 1.40691 9.09306L1.21314 8.3769C1.02063 7.66369 1.22835 6.92343 1.75903 6.43472C3.01185 5.27938 5.06318 4.73817 7.9143 4.80886C10.7697 4.87981 12.8548 5.52668 14.1669 6.74873C14.7192 7.26285 14.9651 8.0091 14.8122 8.71075Z" fill="white"/>
</g>
<defs>
<clipPath id="clip0_15593_408467">
<rect width="16" height="16" fill="white"/>
</clipPath>
</defs>
</svg>
