<svg width="80" height="80" viewBox="0 0 80 80" fill="none" xmlns="http://www.w3.org/2000/svg">
  <path
    d="M47.9159 25C48.5552 25.0605 49.1931 25.0921 49.8296 25.0949C50.6954 25.0992 51.3284 25.1477 51.7287 25.2405C52.5764 25.4346 53.3811 25.7588 54.1427 26.213C55.2253 26.8586 56.048 27.7123 56.6109 28.7742C56.9875 29.4844 57.2182 30.3937 57.3029 31.5019C57.3724 32.4119 57.3856 33.362 57.3426 34.3521C57.341 34.3829 57.3277 34.4118 57.3056 34.433C57.2835 34.4542 57.2542 34.466 57.2237 34.466H52.5062C52.4778 34.4661 52.4503 34.4552 52.4295 34.4357C52.4086 34.4161 52.3958 34.3892 52.3937 34.3605C52.3284 33.5743 52.3138 32.9063 52.3499 32.3564C52.4277 31.1665 52.0066 30.3093 51.0866 29.7847C50.2847 29.3276 49.3696 29.258 48.3412 29.5758C47.2683 29.9063 46.677 30.6398 46.5672 31.7762C46.5185 32.2853 46.4956 32.7952 46.4984 33.3057C46.5067 34.2171 46.7847 35.0307 47.3322 35.7466C47.8172 36.3795 48.3752 36.9392 49.0062 37.4258C50.1902 38.34 51.3701 39.2598 52.5459 40.1853C53.9439 41.2851 54.7507 41.9412 54.9661 42.1536C55.7318 42.9116 56.3364 43.7773 56.7797 44.7506C57.0549 45.3539 57.2314 46.0051 57.3092 46.7041C57.3606 47.1696 57.3967 47.837 57.4176 48.7061C57.4454 49.7793 57.3196 50.7286 57.0403 51.5542C56.6706 52.6484 56.0397 53.5808 55.1475 54.3516C54.3497 55.0393 53.3915 55.5506 52.2728 55.8853C50.9192 56.2917 49.4856 56.3951 47.9722 56.1954C46.5422 56.0069 45.3004 55.5203 44.247 54.7355C42.6655 53.5583 41.742 51.9726 41.4765 49.9783L41.5141 46.9256C41.5147 46.8983 41.5267 46.8723 41.5477 46.8531C41.5687 46.8338 41.597 46.8227 41.6266 46.8222L46.1482 46.799C46.4025 46.7596 46.5283 46.8679 46.5255 47.1239C46.5171 47.8271 46.5185 48.5303 46.5296 49.2336C46.5463 50.2363 46.9445 50.9529 47.7241 51.3833C48.1772 51.6322 48.6928 51.7694 49.2709 51.7947C49.8352 51.82 50.348 51.7342 50.8094 51.5373C51.6182 51.1927 52.1088 50.5858 52.2811 49.7167C52.4006 49.1246 52.427 48.4853 52.3603 47.799C52.2964 47.1225 52.0713 46.5065 51.6849 45.9509C51.2263 45.2885 50.6238 44.6662 49.8775 44.0839C48.5114 43.0178 47.1439 41.9546 45.775 40.8941C44.4617 39.8759 43.5723 39.0566 43.1067 38.4364C42.3271 37.4012 41.7802 36.2198 41.4661 34.8922C41.4189 34.255 41.4161 33.2691 41.4578 31.9344C41.5481 29.0695 42.8163 27.0302 45.2622 25.8164C45.8765 25.5112 46.761 25.2391 47.9159 25Z"
    fill="#FF3A4A"
  />
  <path
    d="M70.7988 25.0844C72.5207 25.0873 74.0883 25.6259 75.5017 26.7004C76.5384 27.488 77.2562 28.4599 77.6551 29.616C77.8483 30.1743 77.956 30.9584 77.9782 31.9682C77.9963 32.7347 77.9997 33.5308 77.9886 34.3564C77.9881 34.3857 77.9762 34.4136 77.9555 34.4341C77.9349 34.4546 77.9071 34.4661 77.8781 34.4661H73.1919C73.1708 34.4661 73.1498 34.4618 73.1303 34.4535C73.1108 34.4452 73.0932 34.433 73.0784 34.4176C73.0636 34.4023 73.052 34.3841 73.0443 34.3642C73.0366 34.3442 73.0329 34.3229 73.0335 34.3015C73.0516 33.5955 73.0502 32.9295 73.0293 32.3037C73.0057 31.6131 72.8778 31.0752 72.6457 30.6898C72.1232 29.8234 71.2643 29.3945 70.0692 29.4029C68.5738 29.4142 67.6357 30.1174 67.2549 31.5126C67.1952 31.7306 67.1778 32.2931 67.2028 33.2003C67.2278 34.1299 67.4273 34.876 67.8011 35.4386C68.2375 36.0982 68.7649 36.6735 69.3833 37.1643C71.6959 39.0011 73.2232 40.198 73.9653 40.7549C74.6755 41.2894 75.2946 41.8231 75.8227 42.3562C76.5954 43.1381 77.1721 44.027 77.5529 45.0228C77.8267 45.7386 77.974 46.6655 77.9949 47.8033C78.006 48.4348 77.9997 49.0663 77.9761 49.6978C77.9469 50.4502 77.8503 51.0704 77.6864 51.5585C77.2583 52.8313 76.4773 53.8699 75.3432 54.6744C74.6206 55.1878 73.8319 55.5598 72.9772 55.7904C71.3484 56.2306 69.7405 56.3087 68.1534 56.0246C66.8401 55.7883 65.6241 55.2433 64.5053 54.3896C63.3491 53.505 62.5979 52.2258 62.2519 50.5522C62.1421 50.0219 62.1025 48.8223 62.133 46.9531C62.1335 46.9243 62.1448 46.8968 62.1645 46.876C62.1842 46.8553 62.211 46.8429 62.2394 46.8413C63.8389 46.771 65.4372 46.7794 67.034 46.8666C67.0624 46.8682 67.0891 46.8806 67.1088 46.9014C67.1286 46.9221 67.1398 46.9496 67.1403 46.9784C67.1667 47.8181 67.1875 48.6577 67.2028 49.4973C67.2112 49.9741 67.3821 50.4108 67.7156 50.8074C67.9908 51.1379 68.3584 51.3883 68.8184 51.5585C69.6953 51.8848 70.5855 51.8876 71.4888 51.5669C72.3073 51.2772 72.8042 50.678 72.9793 49.7695C73.2308 48.4587 73.1252 47.3349 72.6624 46.3983C72.4693 46.0101 72.1309 45.5685 71.6472 45.0734C71.3609 44.7809 70.944 44.4187 70.3965 43.9869C68.7496 42.686 67.1 41.3878 65.4476 40.0925C63.5534 38.6087 62.452 36.6474 62.1435 34.2087C62.1518 33.4281 62.1608 32.6525 62.1706 31.8817C62.2011 29.1926 63.3227 27.2412 65.5351 26.0275C67.0847 25.178 68.8392 24.8636 70.7988 25.0844Z"
    fill="#FF3A4A"
  />
  <path
    d="M2 25.3334L9.19818 25.3397C10.9201 25.2736 12.4099 25.4895 13.6676 25.9873C15.4354 26.6892 16.5874 27.9099 17.1239 29.6497C17.3296 30.3149 17.4324 31.3916 17.4324 32.8796C17.4324 34.8683 17.4324 36.8563 17.4324 38.8436C17.4324 39.4947 17.4192 40.07 17.3928 40.5692C17.3595 41.2275 17.2691 41.7921 17.1218 42.2633C16.6826 43.681 15.8439 44.752 14.6057 45.4763C13.3243 46.2231 11.9388 46.5979 10.4489 46.6007C9.2899 46.6035 8.13086 46.6232 6.97181 46.6598C6.94323 46.6603 6.91596 46.6721 6.89575 46.6925C6.87554 46.713 6.86394 46.7406 6.86341 46.7695L6.84048 55.7397C6.84048 55.758 6.83692 55.7761 6.83001 55.793C6.82309 55.8099 6.81296 55.8253 6.80018 55.8382C6.7874 55.8511 6.77224 55.8614 6.75554 55.8684C6.73885 55.8754 6.72096 55.879 6.70289 55.879H2.21263C2.1579 55.879 2.1054 55.857 2.0667 55.8178C2.028 55.7786 2.00625 55.7255 2.00625 55.6701L2 25.3334ZM11.9811 30.4345C11.617 30.163 11.141 30.0126 10.5532 29.983C9.47613 29.9296 8.29832 29.9134 7.01976 29.9345C6.97182 29.9356 6.92622 29.9559 6.89271 29.991C6.8592 30.0261 6.84045 30.0732 6.84048 30.1223V41.5988C6.8404 41.6273 6.85095 41.6549 6.86995 41.6757C6.88894 41.6965 6.91495 41.709 6.94262 41.7106C8.80627 41.8048 10.114 41.7985 10.8659 41.6916C12.1861 41.5031 12.8463 40.7823 12.8463 39.5292C12.8463 37.0862 12.847 34.6425 12.8483 32.1982C12.8483 31.457 12.5593 30.8691 11.9811 30.4345Z"
    fill="#FF3A4A"
  />
  <path
    d="M32.5315 25.2659L37.545 55.6828C37.5474 55.6959 37.547 55.7093 37.5437 55.7222C37.5405 55.7351 37.5344 55.7471 37.5261 55.7573C37.5177 55.7676 37.5072 55.7759 37.4954 55.7816C37.4835 55.7873 37.4705 55.7903 37.4574 55.7904H32.8462C32.8172 55.7906 32.789 55.7798 32.7667 55.7601C32.7445 55.7403 32.7298 55.7129 32.7253 55.6828L31.9749 50.6703C31.9704 50.6403 31.9559 50.6129 31.9341 50.5931C31.9123 50.5734 31.8846 50.5626 31.856 50.5627L25.9816 50.6112C25.9378 50.6118 25.8955 50.6286 25.862 50.6587C25.8285 50.6887 25.8059 50.7302 25.7982 50.7758L25.0206 55.7355C25.0158 55.7648 25.0011 55.7916 24.9791 55.8112C24.9571 55.8308 24.929 55.8421 24.8997 55.8431C23.4738 55.8853 22.0479 55.898 20.6221 55.8811C20.6026 55.8811 20.5276 55.8881 20.3969 55.9022C20.2399 55.9205 20.1753 55.8424 20.203 55.668L25.1978 25.4473C25.2023 25.4179 25.2173 25.3911 25.2403 25.3718C25.2632 25.3525 25.2925 25.3418 25.3229 25.3418L32.5315 25.2659ZM26.6466 45.8476L31.1848 45.9088C31.2004 45.9087 31.2158 45.9052 31.2299 45.8984C31.244 45.8917 31.2565 45.8819 31.2666 45.8697C31.2767 45.8574 31.2841 45.8431 31.2883 45.8277C31.2926 45.8122 31.2935 45.796 31.2911 45.7801L28.9021 31.0505C28.891 30.9774 28.8792 30.9767 28.8667 31.0484L26.5424 45.721C26.54 45.7366 26.5408 45.7526 26.545 45.7678C26.5491 45.783 26.5563 45.7971 26.5662 45.8091C26.5761 45.8211 26.5884 45.8308 26.6023 45.8374C26.6162 45.8441 26.6313 45.8476 26.6466 45.8476Z"
    fill="#FF3A4A"
  />
</svg>
