<svg width="13" height="13" viewBox="0 0 13 13" fill="none" xmlns="http://www.w3.org/2000/svg">
<path fill-rule="evenodd" clip-rule="evenodd" d="M7.1076 12.1075C6.71707 12.498 6.0839 12.498 5.69337 12.1075C5.30283 11.7169 5.30283 11.0838 5.69337 10.6932L8.98619 7.40031H1.40041C0.848113 7.40031 0.400391 6.95258 0.400391 6.40027C0.400391 5.84796 0.848113 5.40023 1.40041 5.40023H8.98594L5.69337 2.10757C5.30283 1.71703 5.30283 1.08384 5.69336 0.693295C6.08389 0.302754 6.71707 0.302754 7.1076 0.693295L12.096 5.68181C12.2837 5.8636 12.4004 6.11831 12.4004 6.40027C12.4004 6.53964 12.3719 6.67236 12.3204 6.7929C12.2717 6.90721 12.2007 7.01428 12.1074 7.10753L7.1076 12.1075Z" fill="#4B506A"/>
</svg>
