<svg width="17" height="16" viewBox="0 0 17 16" fill="none" xmlns="http://www.w3.org/2000/svg">
<g clip-path="url(#clip0_15802_92215)">
<path d="M9.16699 3.33341C9.16699 2.96522 8.86852 2.66675 8.50033 2.66675C8.13214 2.66675 7.83366 2.96522 7.83366 3.33341L7.83366 7.33342H3.83366C3.46547 7.33342 3.16699 7.63189 3.16699 8.00008C3.16699 8.36827 3.46547 8.66675 3.83366 8.66675H7.83366L7.83366 12.6667C7.83366 13.0349 8.13213 13.3334 8.50032 13.3334C8.86851 13.3334 9.16699 13.0349 9.16699 12.6667L9.16699 8.66675H13.167C13.5352 8.66675 13.8337 8.36827 13.8337 8.00008C13.8337 7.63189 13.5352 7.33342 13.167 7.33342H9.16699L9.16699 3.33341Z" fill="#7F8A94"/>
</g>
<defs>
<clipPath id="clip0_15802_92215">
<rect width="16" height="16" fill="white" transform="translate(0.5)"/>
</clipPath>
</defs>
</svg>
