<svg width="20" height="20" viewBox="0 0 20 20" fill="none" xmlns="http://www.w3.org/2000/svg">
<path d="M11.7678 1.66699H5.47879C4.29533 1.66699 3.33594 2.64029 3.33594 3.8409V16.1597C3.33594 17.3604 4.29533 18.3337 5.47879 18.3337H14.0502C15.2337 18.3337 16.1931 17.3604 16.1931 16.1597V6.15634C16.1931 5.63828 15.9902 5.14144 15.6291 4.77512L13.1293 2.2391C12.7682 1.87279 12.2785 1.66699 11.7678 1.66699Z" fill="#A8B3BD"/>
<mask id="mask0_18042_159564" style="mask-type:luminance" maskUnits="userSpaceOnUse" x="3" y="1" width="14" height="18">
<path d="M11.7678 1.66699H5.47879C4.29533 1.66699 3.33594 2.64029 3.33594 3.8409V16.1597C3.33594 17.3604 4.29533 18.3337 5.47879 18.3337H14.0502C15.2337 18.3337 16.1931 17.3604 16.1931 16.1597V6.15634C16.1931 5.63828 15.9902 5.14144 15.6291 4.77512L13.1293 2.2391C12.7682 1.87279 12.2785 1.66699 11.7678 1.66699Z" fill="white"/>
</mask>
<g mask="url(#mask0_18042_159564)">
<path d="M22.2377 -9.93213C23.4213 -9.93213 24.3806 -8.95893 24.3806 -7.75822V4.56062C24.3806 5.76134 23.4213 6.73454 22.2377 6.73454H13.6663C12.4827 6.73454 11.5234 5.76134 11.5234 4.56062V-7.75822C11.5234 -8.95893 12.4827 -9.93213 13.6663 -9.93213H22.2377Z" fill="#707982"/>
</g>
<path d="M5.78906 9.4458H13.7474" stroke="white" stroke-linecap="round" stroke-linejoin="round"/>
<path d="M5.78906 12.3901H9.982" stroke="white" stroke-linecap="round" stroke-linejoin="round"/>
</svg>
