<svg width="19" height="18" viewBox="0 0 19 18" fill="none" xmlns="http://www.w3.org/2000/svg">
<g clip-path="url(#clip0_3912_41112)">
<path d="M15.3419 13.4051C15.3419 12.0368 15.3419 10.41 15.3419 8.85418C15.3419 5.62287 12.7224 3.00366 9.49106 3.00366V3.00366C6.25975 3.00366 3.64026 5.62315 3.64026 8.85446V13.8017" stroke="white" stroke-width="1.67143" stroke-linecap="round"/>
<path d="M12.2029 11.1037C12.2029 10.3581 12.8073 9.75366 13.5529 9.75366H14.2279C14.9735 9.75366 15.5779 10.3581 15.5779 11.1037V13.8037C15.5779 14.5492 14.9735 15.1537 14.2279 15.1537H13.5529C12.8073 15.1537 12.2029 14.5492 12.2029 13.8037V11.1037Z" fill="white" stroke="white" stroke-width="1.215"/>
<path d="M6.7879 11.1037C6.7879 10.3581 6.18349 9.75366 5.4379 9.75366H4.7629C4.01732 9.75366 3.4129 10.3581 3.4129 11.1037V13.8037C3.4129 14.5492 4.01732 15.1537 4.7629 15.1537H5.4379C6.18349 15.1537 6.7879 14.5492 6.7879 13.8037V11.1037Z" fill="white" stroke="white" stroke-width="1.215"/>
</g>
<defs>
<clipPath id="clip0_3912_41112">
<rect width="18" height="18" fill="white" transform="translate(0.5)"/>
</clipPath>
</defs>
</svg>
