<svg width="16" height="16" viewBox="0 0 16 16" fill="none" xmlns="http://www.w3.org/2000/svg">
<g clip-path="url(#clip0_457_230)">
<path fill-rule="evenodd" clip-rule="evenodd" d="M8.00016 14.6666C11.6821 14.6666 14.6668 11.6818 14.6668 7.99992C14.6668 4.31802 11.6821 1.33325 8.00016 1.33325C4.31826 1.33325 1.3335 4.31802 1.3335 7.99992C1.3335 11.6818 4.31826 14.6666 8.00016 14.6666ZM8.00019 4.66658C8.44202 4.66658 8.80019 4.96506 8.80019 5.33325V8.66658C8.80019 9.03477 8.44202 9.33325 8.00019 9.33325C7.55837 9.33325 7.20019 9.03477 7.20019 8.66658V5.33325C7.20019 4.96506 7.55837 4.66658 8.00019 4.66658ZM8.00019 11.5999C8.44202 11.5999 8.80019 11.2417 8.80019 10.7999C8.80019 10.3581 8.44202 9.99992 8.00019 9.99992C7.55837 9.99992 7.20019 10.3581 7.20019 10.7999C7.20019 11.2417 7.55837 11.5999 8.00019 11.5999Z" fill="#E22A21"/>
</g>
<defs>
<clipPath id="clip0_457_230">
<rect width="16" height="16" fill="white"/>
</clipPath>
</defs>
</svg>
