<svg width="16" height="16" viewBox="0 0 16 16" fill="none" xmlns="http://www.w3.org/2000/svg">
<g clip-path="url(#clip0_457_1349)">
<path fill-rule="evenodd" clip-rule="evenodd" d="M8.00016 14.6666C11.6821 14.6666 14.6668 11.6818 14.6668 7.99992C14.6668 4.31802 11.6821 1.33325 8.00016 1.33325C4.31826 1.33325 1.3335 4.31802 1.3335 7.99992C1.3335 11.6818 4.31826 14.6666 8.00016 14.6666ZM11.1228 7.15294C11.3914 6.90112 11.405 6.47923 11.1532 6.21062C10.9014 5.94202 10.4795 5.92841 10.2109 6.18023L7.11127 9.0861L5.78946 7.84689C5.52085 7.59507 5.09896 7.60868 4.84714 7.87729C4.59532 8.1459 4.60893 8.56779 4.87754 8.81961L6.65531 10.4863C6.91175 10.7267 7.3108 10.7267 7.56723 10.4863L11.1228 7.15294Z" fill="#00AA02"/>
<path fill-rule="evenodd" clip-rule="evenodd" d="M6.19935 10.0588L4.8781 8.82014L4.87754 8.81961C4.60893 8.56779 4.59532 8.1459 4.84714 7.87729C5.09896 7.60868 5.52085 7.59507 5.78946 7.84689L5.79004 7.84744L7.11127 9.0861L10.2109 6.18023C10.4795 5.92841 10.9014 5.94202 11.1532 6.21062C11.405 6.47923 11.3914 6.90112 11.1228 7.15294L8.0232 10.0588L8.02229 10.0597L7.56723 10.4863C7.3108 10.7267 6.91175 10.7267 6.65531 10.4863L6.19935 10.0588ZM14.6668 7.99992C14.6668 11.6818 11.6821 14.6666 8.00016 14.6666C4.31826 14.6666 1.3335 11.6818 1.3335 7.99992C1.3335 4.31802 4.31826 1.33325 8.00016 1.33325C11.6821 1.33325 14.6668 4.31802 14.6668 7.99992Z" fill="#00AA02"/>
</g>
<defs>
<clipPath id="clip0_457_1349">
<rect width="16" height="16" fill="white"/>
</clipPath>
</defs>
</svg>
