<svg width="16" height="16" viewBox="0 0 16 16" fill="none" xmlns="http://www.w3.org/2000/svg">
<g clip-path="url(#clip0_15940_128836)">
<path d="M8.66732 10.6666C8.66732 11.0348 8.36884 11.3333 8.00065 11.3333C7.63246 11.3333 7.33398 11.0348 7.33398 10.6666L7.33398 7.33331C7.33398 6.96512 7.63246 6.66665 8.00065 6.66665C8.36884 6.66665 8.66732 6.96512 8.66732 7.33331L8.66732 10.6666Z" fill="#7F8A94"/>
<path d="M8.00065 5.99998C8.36884 5.99998 8.66732 5.7015 8.66732 5.33331C8.66732 4.96512 8.36884 4.66665 8.00065 4.66665C7.63246 4.66665 7.33398 4.96512 7.33398 5.33331C7.33398 5.7015 7.63246 5.99998 8.00065 5.99998Z" fill="#7F8A94"/>
<path fill-rule="evenodd" clip-rule="evenodd" d="M8.00065 14.6666C11.6825 14.6666 14.6673 11.6819 14.6673 7.99998C14.6673 4.31808 11.6825 1.33331 8.00065 1.33331C4.31875 1.33331 1.33398 4.31808 1.33398 7.99998C1.33398 11.6819 4.31875 14.6666 8.00065 14.6666ZM8.00065 13.3333C10.9462 13.3333 13.334 10.9455 13.334 7.99998C13.334 5.05446 10.9462 2.66665 8.00065 2.66665C5.05513 2.66665 2.66732 5.05446 2.66732 7.99998C2.66732 10.9455 5.05513 13.3333 8.00065 13.3333Z" fill="#7F8A94"/>
</g>
<defs>
<clipPath id="clip0_15940_128836">
<rect width="16" height="16" fill="white"/>
</clipPath>
</defs>
</svg>
