<svg width="16" height="16" viewBox="0 0 16 16" fill="none" xmlns="http://www.w3.org/2000/svg">
<g clip-path="url(#clip0_3348_176602)">
<path fill-rule="evenodd" clip-rule="evenodd" d="M8 14.6666C11.6819 14.6666 14.6667 11.6818 14.6667 7.99992C14.6667 4.31802 11.6819 1.33325 8 1.33325C4.3181 1.33325 1.33334 4.31802 1.33334 7.99992C1.33334 11.6818 4.3181 14.6666 8 14.6666ZM8.79997 5.19992C8.79997 5.64175 8.4418 5.99992 7.99997 5.99992C7.55814 5.99992 7.19997 5.64175 7.19997 5.19992C7.19997 4.75809 7.55814 4.39992 7.99997 4.39992C8.4418 4.39992 8.79997 4.75809 8.79997 5.19992ZM8.79997 11.1999C8.79997 11.6417 8.4418 11.9999 7.99997 11.9999C7.55814 11.9999 7.19997 11.6417 7.19997 11.1999V7.46658C7.19997 7.02476 7.55814 6.66658 7.99997 6.66658C8.4418 6.66658 8.79997 7.02476 8.79997 7.46658V11.1999Z" fill="#7F8A94"/>
</g>
<defs>
<clipPath id="clip0_3348_176602">
<rect width="16" height="16" fill="white"/>
</clipPath>
</defs>
</svg>
