<svg width="20" height="20" viewBox="0 0 20 20" fill="none" xmlns="http://www.w3.org/2000/svg">
<g clip-path="url(#clip0_15587_117184)">
<path d="M16.4901 14.8945C16.4901 13.3742 16.4901 11.5667 16.4901 9.83798C16.4901 6.24763 13.5795 3.3374 9.98917 3.3374V3.3374C6.39883 3.3374 3.48828 6.24795 3.48828 9.8383V15.3352" stroke="#7F8A94" stroke-width="1.85714" stroke-linecap="round"/>
<path d="M13 12.3374C13 11.509 13.6716 10.8374 14.5 10.8374H15.25C16.0784 10.8374 16.75 11.509 16.75 12.3374V15.3374C16.75 16.1658 16.0784 16.8374 15.25 16.8374H14.5C13.6716 16.8374 13 16.1658 13 15.3374V12.3374Z" fill="#7F8A94" stroke="#7F8A94" stroke-width="1.35"/>
<path d="M6.98438 12.3374C6.98438 11.509 6.3128 10.8374 5.48438 10.8374H4.73438C3.90595 10.8374 3.23438 11.509 3.23438 12.3374V15.3374C3.23438 16.1658 3.90595 16.8374 4.73438 16.8374H5.48438C6.3128 16.8374 6.98438 16.1658 6.98438 15.3374V12.3374Z" fill="#7F8A94" stroke="#7F8A94" stroke-width="1.35"/>
</g>
<defs>
<clipPath id="clip0_15587_117184">
<rect width="20" height="20" fill="white"/>
</clipPath>
</defs>
</svg>
