<svg width="16" height="17" viewBox="0 0 16 17" fill="none" xmlns="http://www.w3.org/2000/svg">
<path fill-rule="evenodd" clip-rule="evenodd" d="M12.4611 6.80734C12.8448 6.44759 12.8643 5.84489 12.5045 5.46117C12.1448 5.07744 11.5421 5.058 11.1583 5.41774L6.73035 9.56899L4.84204 7.7987C4.45831 7.43895 3.85561 7.45839 3.49587 7.84212C3.13612 8.22585 3.15557 8.82855 3.53929 9.18829L6.07898 11.5692C6.44532 11.9127 7.01538 11.9127 7.38172 11.5692L12.4611 6.80734Z" fill="#E30084"/>
<path fill-rule="evenodd" clip-rule="evenodd" d="M5.4276 10.9586L3.53929 9.18829C3.15557 8.82855 3.13612 8.22585 3.49587 7.84212C3.85561 7.45839 4.45831 7.43895 4.84204 7.7987L6.73035 9.56899L11.1583 5.41774C11.5421 5.058 12.1448 5.07744 12.5045 5.46117C12.8643 5.84489 12.8448 6.44759 12.4611 6.80734L8.03309 10.9586L8.0318 10.9598L7.38172 11.5692C7.01538 11.9127 6.44532 11.9127 6.07898 11.5692L5.4276 10.9586Z" fill="#E30084"/>
</svg>
