<svg width="20" height="20" viewBox="0 0 20 20" fill="none" xmlns="http://www.w3.org/2000/svg">
<path fill-rule="evenodd" clip-rule="evenodd" d="M17.498 14.525V4.25C17.498 3.83579 17.1623 3.5 16.748 3.5H3.24805C2.83383 3.5 2.49805 3.83579 2.49805 4.25V16.5926C2.49805 17.2739 3.33314 17.6023 3.79719 17.1034L5.49805 15.275H16.748C17.1623 15.275 17.498 14.9392 17.498 14.525ZM9.99805 12.5C9.58383 12.5 9.24805 12.1642 9.24805 11.75V11.375C9.24805 10.9608 9.58383 10.625 9.99805 10.625C10.4123 10.625 10.748 10.9608 10.748 11.375V11.75C10.748 12.1642 10.4123 12.5 9.99805 12.5ZM9.24805 8.75C9.24805 9.16421 9.58383 9.5 9.99805 9.5C10.4123 9.5 10.748 9.16421 10.748 8.75V6.5C10.748 6.08579 10.4123 5.75 9.99805 5.75C9.58383 5.75 9.24805 6.08579 9.24805 6.5V8.75Z" fill="#7F8A94"/>
<path fill-rule="evenodd" clip-rule="evenodd" d="M2.69891 16.0818L2.69959 16.081L2.69891 16.0818ZM10.5944 10.9201C10.4574 10.7407 10.2412 10.625 9.99805 10.625C9.75487 10.625 9.53873 10.7407 9.40169 10.9201C9.3053 11.0463 9.24805 11.204 9.24805 11.375V11.75C9.24805 12.1642 9.58383 12.5 9.99805 12.5C10.4123 12.5 10.748 12.1642 10.748 11.75V11.375C10.748 11.204 10.6908 11.0463 10.5944 10.9201ZM10.5944 9.20488C10.6908 9.07871 10.748 8.92104 10.748 8.75V6.5C10.748 6.08579 10.4123 5.75 9.99805 5.75C9.58383 5.75 9.24805 6.08579 9.24805 6.5V8.75C9.24805 8.92104 9.3053 9.07871 9.40169 9.20488C9.53873 9.38427 9.75487 9.5 9.99805 9.5C10.2412 9.5 10.4574 9.38427 10.5944 9.20488ZM17.498 4.25V14.525C17.498 14.9392 17.1623 15.275 16.748 15.275H5.49805L3.79719 17.1034C3.33314 17.6023 2.49805 17.2739 2.49805 16.5926V4.25C2.49805 3.83579 2.83383 3.5 3.24805 3.5H16.748C17.1623 3.5 17.498 3.83579 17.498 4.25Z" fill="#7F8A94"/>
</svg>
