<svg width="17" height="16" viewBox="0 0 17 16" fill="none" xmlns="http://www.w3.org/2000/svg">
<path fill-rule="evenodd" clip-rule="evenodd" d="M10.8053 1.91145C11.0676 1.64925 11.4233 1.50195 11.7941 1.50195C12.165 1.50195 12.5207 1.64925 12.783 1.91145L14.5914 3.71984C14.8535 3.98212 15.0008 4.3378 15.0008 4.70866C15.0008 5.07952 14.8535 5.43519 14.5914 5.69747L13.4823 6.80656L9.69623 3.02054L10.8053 1.91145ZM8.70742 4.00935L2.4137 10.3031C2.15139 10.5653 2.00399 10.921 2.00391 11.2919V13.1003C2.00391 13.4712 2.15126 13.827 2.41355 14.0892C2.67584 14.3515 3.03158 14.4989 3.40251 14.4989H5.21091C5.58181 14.4988 5.93749 14.3514 6.19972 14.0891L12.4934 7.79538L8.70742 4.00935Z" fill="#7F8A94"/>
</svg>
