<svg width="28" height="28" viewBox="0 0 28 28" fill="none" xmlns="http://www.w3.org/2000/svg">
<g clip-path="url(#clip0_15733_15050)">
<circle cx="14" cy="14" r="13.5" fill="white" stroke="#E7EBEE"/>
<path d="M20.707 10.5931C20.6874 9.7547 20.005 9.08038 19.162 9.08038H8.8377C7.99463 9.08038 7.31225 9.75473 7.29269 10.5931L7.28906 10.5898V16.7843C7.28906 17.6397 7.98231 18.333 8.8377 18.333H19.162C20.0173 18.333 20.7106 17.6397 20.7106 16.7843V10.5898L20.707 10.5931Z" fill="#FFD874"/>
<mask id="mask0_15733_15050" style="mask-type:luminance" maskUnits="userSpaceOnUse" x="7" y="9" width="14" height="10">
<path d="M20.7089 10.6065C20.6894 9.76807 20.007 9.09375 19.1639 9.09375H8.83966C7.99659 9.09375 7.3142 9.7681 7.29464 10.6065L7.29102 10.6031V16.7977C7.29102 17.6531 7.98427 18.3463 8.83966 18.3463H19.1639C20.0193 18.3463 20.7126 17.6531 20.7126 16.7977V10.6031L20.7089 10.6065Z" fill="white"/>
</mask>
<g mask="url(#mask0_15733_15050)">
<path d="M20.7126 10.2709C20.7126 10.7515 20.489 11.2053 20.1081 11.4985L15.2608 15.2271C14.5185 15.798 13.4851 15.798 12.7427 15.2271L7.8955 11.4985C7.51454 11.2053 7.29102 10.7515 7.29102 10.2709V7.41986C7.29102 6.56448 7.98429 5.87122 8.83966 5.87122H19.1639C20.0193 5.87122 20.7126 6.56448 20.7126 7.41986V10.2709Z" fill="#F4A800"/>
</g>
</g>
<defs>
<clipPath id="clip0_15733_15050">
<rect width="28" height="28" fill="white"/>
</clipPath>
</defs>
</svg>
