<svg width="30" height="30" viewBox="0 0 30 30" fill="none" xmlns="http://www.w3.org/2000/svg">
<rect width="30" height="30" rx="8" fill="#FFC183"/>
<mask id="mask0_1518_796086" style="mask-type:alpha" maskUnits="userSpaceOnUse" x="0" y="0" width="30" height="30">
<rect width="30" height="30" rx="8" fill="#EE8B28"/>
</mask>
<g mask="url(#mask0_1518_796086)">
<path d="M9.30287 5.14906C8.05448 5.66922 8.43593 6.83959 8.78271 7.35976C6.18183 6.52751 6.91881 10.7408 7.61241 12.9515C7.09224 12.6481 6.07792 12.6394 6.18196 15.0321C6.28599 17.4249 7.61241 18.5432 8.26261 18.8033C8.67874 21.092 10.3433 22.9646 11.1235 23.6148V24.7852C3.00896 25.7215 -0.146701 27.8628 -0.710212 28.8165L-1.6205 30.1169L-7.73242 33.8881L4.23134 40L20.7465 39.2198L33.2305 32.3276C31.0458 26.6058 23.1306 24.9153 19.4461 24.7852V23.6148C20.9026 22.5745 21.8736 19.9737 22.177 18.8033C23.3474 18.2832 23.6074 18.1531 24.1276 15.0321C24.5437 12.5354 23.174 12.4313 22.4371 12.6914C22.5671 12.4313 22.8792 11.313 23.0873 8.92022C23.2953 6.52747 20.3131 4.97566 18.7959 4.49886C15.0247 3.32849 10.8634 4.49886 9.30287 5.14906Z" fill="#EE8B28"/>
</g>
</svg>
