<svg width="28" height="28" viewBox="0 0 28 28" fill="none" xmlns="http://www.w3.org/2000/svg">
<g clip-path="url(#clip0_591_35949)">
<rect width="28" height="28" rx="14" fill="#FFD874"/>
<rect x="2.41504" y="2.41504" width="23.1724" height="23.1724" rx="11.5862" fill="#FFD874"/>
<path d="M2.29621 14.7702C2.29621 16.8854 3.72014 18.6402 4.95406 18.6402C6.18799 18.6402 6.76465 16.8854 6.76465 14.7702C6.76465 12.655 6.18799 10.98 4.95406 10.98C3.72014 10.98 2.29621 12.655 2.29621 14.7702Z" fill="#6B76C5"/>
<path d="M3.97004 14.809C3.97004 17.2768 4.97033 19.2774 6.20426 19.2774C7.87992 19.2774 8.43848 17.2768 8.43848 14.809C8.43848 12.3411 8.1592 10.3405 6.20426 10.3405C4.97033 10.3405 3.97004 12.3411 3.97004 14.809Z" fill="#4F5380"/>
<path d="M10.8903 22.8058C9.79571 22.8056 7.99238 26.2696 7.22754 28.0016H20.7759C20.7759 28.0016 18.9665 23.3088 17.113 22.8058C15.2595 22.3028 11.9849 22.8059 10.8903 22.8058Z" fill="#DFD9D6"/>
<circle cx="14.0189" cy="14.8099" r="8.93687" fill="#E5E2E1"/>
<ellipse cx="12.3453" cy="14.8084" rx="6.1441" ry="6.41123" fill="#C9CED7"/>
<path d="M20.7233 18.1651C20.021 18.678 18.144 19.452 16.2549 19.5615" stroke="#6B76C5" stroke-width="0.549571" stroke-linecap="round"/>
<path d="M24.6442 14.809C24.6442 17.2768 23.6439 19.2774 22.41 19.2774C20.7343 19.2774 20.1758 17.2768 20.1758 14.809C20.1758 12.3411 20.4551 10.3405 22.41 10.3405C23.6439 10.3405 24.6442 12.3411 24.6442 14.809Z" fill="#4F5380"/>
<path d="M26.3102 14.7704C26.3102 16.8856 24.8863 18.6404 23.6524 18.6404C22.4185 18.6404 21.8418 16.8856 21.8418 14.7704C21.8418 12.6552 22.4185 10.9802 23.6524 10.9802C24.8863 10.9802 26.3102 12.6552 26.3102 14.7704Z" fill="#6B76C5"/>
<rect x="13.4697" y="18.9475" width="3.35133" height="1.67566" rx="0.837832" transform="rotate(-3.92822 13.4697 18.9475)" fill="#4F5380"/>
</g>
<defs>
<clipPath id="clip0_591_35949">
<rect width="28" height="28" rx="14" fill="white"/>
</clipPath>
</defs>
</svg>
