<svg width="18" height="18" viewBox="0 0 18 18" fill="none" xmlns="http://www.w3.org/2000/svg">
<g clip-path="url(#clip0_15733_18191)">
<path d="M9.75 12.75C9.75 13.1642 9.41421 13.5 9 13.5C8.58579 13.5 8.25 13.1642 8.25 12.75C8.25 12.3358 8.58579 12 9 12C9.41421 12 9.75 12.3358 9.75 12.75Z" fill="#A8B3BD"/>
<path fill-rule="evenodd" clip-rule="evenodd" d="M7.875 6.9825C7.875 6.4946 8.32176 6 9 6C9.67824 6 10.125 6.4946 10.125 6.9825C10.125 7.2084 9.9173 7.70282 9.41459 7.95418C8.75508 8.28393 8.48081 8.90251 8.36486 9.31679C8.30392 9.53449 8.27579 9.7323 8.26247 9.87486C8.25573 9.94703 8.25258 10.0074 8.25113 10.052C8.25041 10.0743 8.25011 10.0929 8.25001 10.1072L8.24998 10.1254L8.25003 10.132L8.25006 10.1347L8.25009 10.1369C8.25668 10.5511 8.59776 10.8815 9.01192 10.8749C9.42444 10.8683 9.75387 10.5295 9.74997 10.1176C9.74999 10.1153 9.75005 10.1095 9.75034 10.1006C9.75093 10.0827 9.75238 10.0528 9.75597 10.0143C9.76332 9.93564 9.77874 9.83043 9.80934 9.72111C9.87644 9.48136 9.97718 9.34994 10.0854 9.29582C11.0827 8.79718 11.625 7.7916 11.625 6.9825C11.625 5.55674 10.3928 4.5 9 4.5C7.60717 4.5 6.375 5.55674 6.375 6.9825C6.375 7.39671 6.71079 7.7325 7.125 7.7325C7.53921 7.7325 7.875 7.39671 7.875 6.9825ZM9 10.125C8.25009 10.1369 8.25009 10.1369 8.25009 10.1369L9 10.125Z" fill="#A8B3BD"/>
<path fill-rule="evenodd" clip-rule="evenodd" d="M9 16.5C13.1421 16.5 16.5 13.1421 16.5 9C16.5 4.85786 13.1421 1.5 9 1.5C4.85786 1.5 1.5 4.85786 1.5 9C1.5 13.1421 4.85786 16.5 9 16.5ZM9 15C12.3137 15 15 12.3137 15 9C15 5.68629 12.3137 3 9 3C5.68629 3 3 5.68629 3 9C3 12.3137 5.68629 15 9 15Z" fill="#A8B3BD"/>
</g>
<defs>
<clipPath id="clip0_15733_18191">
<rect width="18" height="18" fill="white"/>
</clipPath>
</defs>
</svg>
