<svg width="28" height="28" viewBox="0 0 28 28" fill="none" xmlns="http://www.w3.org/2000/svg">
<g clip-path="url(#clip0_3519_588121)">
<path fill-rule="evenodd" clip-rule="evenodd" d="M25.5 13.9922C25.5 20.3435 20.3513 25.4922 14 25.4922C11.7311 25.4922 9.61565 24.8351 7.83358 23.7009L4.85418 24.5002C4.02893 24.7215 3.27378 23.9655 3.4949 23.1393L4.29224 20.1601C3.15743 18.3777 2.5 16.2617 2.5 13.9922C2.5 7.64091 7.64873 2.49219 14 2.49219C20.3513 2.49219 25.5 7.64091 25.5 13.9922Z" fill="#FF64C0"/>
<path d="M18.9966 18.4H17.1719V9.59375H18.9966V18.4Z" fill="white"/>
<path d="M8 18.4L11.0534 9.59375H13.4013L16.4426 18.4H14.484L13.821 16.3687H10.6338L9.97075 18.4H8ZM13.3587 14.9456L12.2578 11.5764H12.197L11.096 14.9456H13.3587Z" fill="white"/>
</g>
<defs>
<clipPath id="clip0_3519_588121">
<rect width="28" height="28" fill="white"/>
</clipPath>
</defs>
</svg>
