<svg width="40" height="41" viewBox="0 0 40 41" fill="none" xmlns="http://www.w3.org/2000/svg">
<g clip-path="url(#clip0_18042_221818)">
<path d="M31.5 5.5H31.6667C33.5076 5.5 35 6.99238 35 8.83333V18.5H31.5V5.5Z" fill="#A8B3BD"/>
<path d="M5 8.83333C5 6.99238 6.49238 5.5 8.33333 5.5H28.3333C29.2538 5.5 30 6.24619 30 7.16667V35.5L26.875 33.4375L23.75 35.5L20.625 33.4375L17.5 35.5L14.375 33.4375L11.25 35.5L8.125 33.4375L5 35.5V8.83333Z" fill="#A8B3BD"/>
<path d="M17.5 25C21.0899 25 24 22.0899 24 18.5C24 14.9101 21.0899 12 17.5 12C13.9101 12 11 14.9101 11 18.5C11 22.0899 13.9101 25 17.5 25Z" fill="#A8B3BD" stroke="white" stroke-width="1.5" stroke-miterlimit="10"/>
<path d="M17.5002 25C18.8896 25 20.016 22.0899 20.016 18.5C20.016 14.9101 18.8896 12 17.5002 12C16.1107 12 14.9844 14.9101 14.9844 18.5C14.9844 22.0899 16.1107 25 17.5002 25Z" fill="#A8B3BD" stroke="white" stroke-width="1.5" stroke-miterlimit="10"/>
<path d="M11 18.5H24" stroke="white" stroke-width="1.4" stroke-miterlimit="10"/>
<path d="M31 37.5C34.3137 37.5 37 34.8137 37 31.5C37 28.1863 34.3137 25.5 31 25.5C27.6863 25.5 25 28.1863 25 31.5C25 34.8137 27.6863 37.5 31 37.5Z" fill="#7F8A94"/>
<path d="M33 29.5L29 33.5" stroke="white" stroke-width="1.25006" stroke-linecap="round"/>
<path d="M29 29.5L33 33.5" stroke="white" stroke-width="1.25006" stroke-linecap="round"/>
</g>
<defs>
<clipPath id="clip0_18042_221818">
<rect width="40" height="40" fill="white" transform="translate(0 0.5)"/>
</clipPath>
</defs>
</svg>
