<svg width="40" height="40" viewBox="0 0 40 40" fill="none" xmlns="http://www.w3.org/2000/svg">
<g clip-path="url(#clip0_18042_255616)">
<path fill-rule="evenodd" clip-rule="evenodd" d="M17.2632 6.65708L4.41391 19.5063C3.63286 20.2874 3.63286 21.5537 4.41391 22.3347L15.7276 33.6485C16.5087 34.4295 17.775 34.4295 18.556 33.6485L31.4053 20.7992C31.7804 20.4241 31.9911 19.9154 31.9911 19.385V8.07129C31.9911 6.96672 31.0956 6.07129 29.9911 6.07129H18.6774C18.1469 6.07129 17.6382 6.282 17.2632 6.65708ZM27.6397 12.2331C28.7443 12.2331 29.6397 11.3377 29.6397 10.2331C29.6397 9.12856 28.7443 8.23313 27.6397 8.23313C26.5352 8.23313 25.6397 9.12856 25.6397 10.2331C25.6397 11.3377 26.5352 12.2331 27.6397 12.2331Z" fill="#A8B3BD"/>
<path d="M23.0933 18.6516L12.9275 21.3755" stroke="white" stroke-width="2" stroke-linecap="round"/>
<circle cx="17.577" cy="15.577" r="1.57703" fill="white"/>
<circle cx="18.577" cy="24.577" r="1.57703" fill="white"/>
<path d="M29 34C32.3137 34 35 31.3137 35 28C35 24.6863 32.3137 22 29 22C25.6863 22 23 24.6863 23 28C23 31.3137 25.6863 34 29 34Z" fill="#7F8A94"/>
<path d="M27.7196 25.4007V28.7105H26.8421C26.6711 28.7105 26.5789 28.9112 26.6905 29.0409L28.8504 31.5518C28.9302 31.6446 29.0738 31.6446 29.1536 31.5518L31.3138 29.0406C31.4253 28.911 31.3333 28.7103 31.1623 28.7102L30.2547 28.7096V25.4001C30.2547 25.1792 30.0755 25.0001 29.8545 25.0001L28.1194 25.0007C27.8986 25.0008 27.7196 25.1799 27.7196 25.4007Z" fill="white"/>
</g>
<defs>
<clipPath id="clip0_18042_255616">
<rect width="40" height="40" fill="white"/>
</clipPath>
</defs>
</svg>
