<svg width="30" height="30" viewBox="0 0 30 30" fill="none" xmlns="http://www.w3.org/2000/svg">
<rect width="30" height="30" rx="8" fill="#FF8F98"/>
<mask id="mask0_1518_796087" style="mask-type:alpha" maskUnits="userSpaceOnUse" x="0" y="0" width="30" height="30">
<rect width="30" height="30" rx="8" fill="#FF515E"/>
</mask>
<g mask="url(#mask0_1518_796087)">
<path d="M-1.11304 31.4979C0.280761 29.6395 4.36079 25.872 9.53051 25.6693C9.65722 24.9513 10.1134 23.6673 10.9243 24.2755V23.3881C9.8684 22.6278 7.75659 20.5498 7.75659 18.3197C7.08081 18.0663 5.7039 17.1033 5.60254 15.2787C5.48694 13.1979 6.84787 13.2264 7.37603 13.8247C7.10303 13.3903 6.70272 12.5555 6.61621 11.6038C6.4895 10.21 5.85595 6.15535 11.051 6.15535C11.5156 5.22615 13.1037 3.5198 15.7393 4.12801C19.0337 4.88826 18.4001 6.28175 21.3144 6.28175C23.6459 6.28175 24.5666 5.77492 24.7356 5.5215C24.6089 6.02833 24.1781 7.09269 23.4685 7.29542C23.8909 7.33766 24.837 7.34611 25.2424 7.042C24.989 7.5066 24.3555 8.46114 23.8486 8.56251C24.102 8.60475 24.7356 8.6132 25.2424 8.30909C25.0735 8.77369 24.5075 9.75358 23.5952 9.95631C24.0176 9.89178 24.9383 9.70605 25.2424 9.47938C24.5666 10.4408 22.987 12.6172 22.0747 13.6309C22.7505 13.2934 24.0007 13.1505 23.5952 15.2787C23.1897 17.4069 22.0747 18.1928 21.5679 18.3197C21.4412 19.587 20.6049 22.3749 18.2734 23.3881V24.2755C18.6536 24.0224 19.4898 23.9469 19.7939 25.6693C21.4834 25.543 26.104 26.5318 31.071 31.4979L13.7119 41L-2 35.0447L-1.11304 31.4979Z" fill="#FF515E"/>
</g>
</svg>
