<svg width="30" height="30" viewBox="0 0 30 30" fill="none" xmlns="http://www.w3.org/2000/svg">
<rect width="30" height="30" rx="8" fill="#FFC183"/>
<mask id="mask0_1518_796089" style="mask-type:alpha" maskUnits="userSpaceOnUse" x="0" y="0" width="30" height="30">
<rect width="30" height="30" rx="8" fill="#FF515E"/>
</mask>
<g mask="url(#mask0_1518_796089)">
<path d="M5.66796 13.7489C5.59587 11.0322 7.31991 9.01796 8.19094 8.3504C8.89506 7.65393 10.4065 6.78313 11.0743 6.4348C11.6149 5.12871 16.1202 3.99676 19.8146 6.4348C23.5089 8.87283 24.0496 12.3555 24.0496 14.1841C24.0496 17.1408 22.1574 19.2344 23.1485 20.7147C23.5863 21.3686 24.0796 22.3401 24.3199 22.7174C23.6711 23.6926 20.145 24.8652 18.463 25.3296C18.7333 26.2003 18.6432 26.2874 22.698 28.1159C26.7528 29.9444 27.8341 30.2055 30.1768 32.5566C31.0515 33.4344 31.1079 37.1134 30.8977 39H-1C-0.969965 37.4037 -0.801766 33.8801 -0.369255 32.5566C0.171384 30.9022 2.51415 29.9444 7.19969 28.1159C10.9481 26.6531 11.3446 25.6488 11.0743 25.3296C8.55128 24.9116 6.17848 23.414 5.30745 22.7174C5.42762 22.6594 5.84815 22.1775 6.56894 20.7147C7.46992 18.8862 5.75806 17.1447 5.66796 13.7489Z" fill="#F4A800"/>
</g>
</svg>
