<svg width="40" height="40" viewBox="0 0 40 40" fill="none" xmlns="http://www.w3.org/2000/svg">
<g clip-path="url(#clip0_18042_316782)">
<path d="M24.7662 26.667C27.355 26.6665 29.8732 25.8222 31.9391 24.2619C34.0049 22.7016 35.5058 20.5104 36.2144 18.0204C36.9229 15.5303 36.8004 12.8772 35.8655 10.463C34.9306 8.04887 33.2342 6.00526 31.0334 4.64192C28.8326 3.27858 26.2473 2.66981 23.6694 2.90788C21.0915 3.14594 18.6615 4.21786 16.7476 5.96119C14.8336 7.70452 13.5402 10.0242 13.0632 12.5688C12.5862 15.1133 12.9517 17.744 14.1043 20.0622C14.3222 20.4831 14.3789 20.9691 14.2638 21.4289L13.5543 24.0789C13.484 24.3412 13.484 24.6175 13.5544 24.8798C13.6247 25.1422 13.7628 25.3814 13.9549 25.5735C14.1469 25.7655 14.3862 25.9037 14.6485 25.974C14.9109 26.0443 15.1871 26.0443 15.4495 25.9741L18.0995 25.2646C18.5593 25.1495 19.0452 25.2062 19.4662 25.4241C21.1125 26.2438 22.927 26.6693 24.7662 26.667Z" fill="#A8B3BD"/>
<path d="M19 14.6855V15.8855" stroke="white" stroke-width="1.4" stroke-linecap="round"/>
<path d="M26.2031 14.085L26.2031 16.485" stroke="white" stroke-width="1.4" stroke-linecap="round"/>
<path d="M31 14.6855V15.8855" stroke="white" stroke-width="1.4" stroke-linecap="round"/>
<path d="M21.3984 13.4844V17.0844" stroke="white" stroke-width="1.4" stroke-linecap="round"/>
<path d="M28.6016 13.4844V17.0844" stroke="white" stroke-width="1.4" stroke-linecap="round"/>
<path d="M23.7969 12.2852V18.2852" stroke="white" stroke-width="1.4" stroke-linecap="round"/>
<path d="M16.9797 31.3714L13.8658 30.7483C13.3914 30.6559 12.9119 30.8316 12.6139 31.2125L11.2138 33.0098C9.47123 32.0182 8.00188 30.5533 7.00691 28.8146L8.67796 27.774C9.12248 27.4979 9.34953 26.9863 9.25657 26.4696L8.63345 23.0412C8.52303 22.4378 7.99793 22 7.38495 22H4.26934C3.5696 22 3 22.5696 3 23.2694C3 25.2183 3.40058 27.1024 4.19047 28.8687C5.55841 31.9303 7.99286 34.3812 11.0454 35.7717C12.8347 36.5864 14.748 37 16.7307 37C17.4304 37 18 36.4309 18 35.7312V32.6154C18 32.0115 17.5707 31.4886 16.9797 31.3714Z" fill="#7F8A94"/>
</g>
<defs>
<clipPath id="clip0_18042_316782">
<rect width="40" height="40" fill="white"/>
</clipPath>
</defs>
</svg>
