<svg width="28" height="28" viewBox="0 0 28 28" fill="none" xmlns="http://www.w3.org/2000/svg">
<g clip-path="url(#clip0_15631_80471)">
<circle cx="14" cy="14" r="13.5" fill="white" stroke="#E7EBEE"/>
<path d="M15.3787 8.11157H12.619C12.3192 8.11157 12.0762 8.3546 12.0762 8.65438V19.7415C12.0762 20.0413 12.3192 20.2843 12.619 20.2843H15.3787C15.6785 20.2843 15.9215 20.0413 15.9215 19.7415V8.65438C15.9215 8.3546 15.6785 8.11157 15.3787 8.11157Z" fill="#FF8F98"/>
<path d="M7.72614 20.2815H10.4864C10.786 20.2815 11.0289 20.0386 11.0289 19.739V15.2746C11.0289 14.975 10.786 14.7321 10.4864 14.7321H7.72614C7.4265 14.7321 7.18359 14.975 7.18359 15.2746V19.739C7.18359 20.0386 7.4265 20.2815 7.72614 20.2815Z" fill="#FF8F98"/>
<path d="M17.5135 20.2838H20.2732C20.573 20.2838 20.816 20.0408 20.816 19.741V13.3107C20.816 13.011 20.573 12.7679 20.2732 12.7679H17.5135C17.2137 12.7679 16.9707 13.011 16.9707 13.3107V19.741C16.9707 20.0408 17.2137 20.2838 17.5135 20.2838Z" fill="#FF515E"/>
</g>
<defs>
<clipPath id="clip0_15631_80471">
<rect width="28" height="28" fill="white"/>
</clipPath>
</defs>
</svg>
