<svg width="18" height="18" viewBox="0 0 18 18" fill="none" xmlns="http://www.w3.org/2000/svg">
<path fill-rule="evenodd" clip-rule="evenodd" d="M4.5 9C4.5 6.51472 6.51472 4.5 9 4.5C10.3322 4.5 11.5296 5.07845 12.3543 6.00009H12.0002C11.586 6.00009 11.2502 6.33588 11.2502 6.75009C11.2502 7.16431 11.586 7.50009 12.0002 7.50009L14.2502 7.50009C14.6644 7.50009 15.0002 7.16431 15.0002 6.75009V4.50009C15.0002 4.08588 14.6644 3.75009 14.2502 3.75009C13.836 3.75009 13.5002 4.08588 13.5002 4.50009V5.03155C12.4016 3.78674 10.7927 3 9 3C5.68629 3 3 5.68629 3 9C3 12.3137 5.68629 15 9 15C12.0603 15 14.5844 12.7096 14.9536 9.74905C15.0049 9.33803 14.7132 8.96327 14.3022 8.91201C13.8912 8.86076 13.5164 9.15242 13.4651 9.56345C13.1884 11.7825 11.2942 13.5 9 13.5C6.51472 13.5 4.5 11.4853 4.5 9Z" fill="#7F8A94"/>
</svg>
