<svg width="28" height="28" viewBox="0 0 28 28" fill="none" xmlns="http://www.w3.org/2000/svg">
<g clip-path="url(#clip0_15733_14464)">
<circle cx="14" cy="14" r="13.5" fill="white" stroke="#E7EBEE"/>
<path d="M11.773 17.5159C11.562 17.7048 11.5561 18.0329 11.7555 18.2341L13.4317 19.9262C13.7447 20.2422 14.2554 20.2422 14.5684 19.9262L16.2446 18.2341C16.444 18.0329 16.4381 17.7048 16.2272 17.5158C15.6027 16.9564 14.8328 16.36 14.0001 16.36C13.1673 16.36 12.3974 16.9564 11.773 17.5159Z" fill="#0E45EE"/>
<path d="M10.8284 16.6135C10.6258 16.7906 10.3199 16.7846 10.1305 16.5934L8.96666 15.4185C8.78272 15.2328 8.77193 14.936 8.95015 14.7448C10.275 13.3235 12.0622 12.0699 14.0003 12.0699C15.9385 12.0699 17.7257 13.3236 19.0505 14.7449C19.2287 14.9361 19.2179 15.2328 19.034 15.4185L17.8701 16.5934C17.6807 16.7846 17.3748 16.7906 17.1722 16.6135C16.3007 15.8516 15.1987 15.0699 14.0003 15.0699C12.802 15.0699 11.6999 15.8516 10.8284 16.6135Z" fill="#4472FF"/>
<path d="M21.6826 12.7445C21.8629 12.5624 21.8772 12.273 21.709 12.0797C19.7471 9.82448 17.0179 8 14 8C10.9819 8 8.25258 9.821 6.29064 12.076C6.12259 12.2692 6.13669 12.5583 6.31666 12.7404L7.34019 13.776C7.54305 13.9813 7.87635 13.9721 8.07647 13.7642C9.61654 12.164 11.691 10.79 14 10.79C16.3092 10.79 18.3839 12.1643 19.924 13.7647C20.1239 13.9725 20.4569 13.9818 20.6598 13.7769L21.6826 12.7445Z" fill="#88A6FF"/>
</g>
<defs>
<clipPath id="clip0_15733_14464">
<rect width="28" height="28" fill="white"/>
</clipPath>
</defs>
</svg>
