<svg width="32" height="32" viewBox="0 0 32 32" fill="none" xmlns="http://www.w3.org/2000/svg">
<g clip-path="url(#clip0_3580_58774)">
<path d="M9.37716 10.6638C9.68494 10.6638 9.98323 10.5573 10.2214 10.3624L15.8216 5.78046C16.6921 5.06822 17.9991 5.68758 17.9991 6.81235L17.9991 25.184C17.9991 26.3088 16.6921 26.9281 15.8216 26.2159L10.2181 21.6312C9.97988 21.4363 9.68159 21.3298 9.37381 21.3298H3.33326C2.59692 21.3298 2 20.7329 2 19.9966V11.997C2 11.2607 2.59692 10.6638 3.33326 10.6638H9.37716Z" fill="#4472FF"/>
<path d="M24.2095 8.94301C28.3748 13.1084 28.3748 19.8618 24.2095 24.0271C23.6888 24.5478 23.6888 25.392 24.2095 25.9126C24.7301 26.4333 25.5743 26.4333 26.095 25.9126C31.3017 20.7059 31.3017 12.2642 26.095 7.0575C25.5743 6.53683 24.7301 6.53683 24.2095 7.0575C23.6888 7.57817 23.6888 8.42234 24.2095 8.94301Z" fill="#4472FF"/>
<path d="M22.3225 10.8276C21.8019 10.3069 20.9577 10.3069 20.437 10.8276C19.9163 11.3483 19.9163 12.1924 20.437 12.7131C22.5197 14.7958 22.5197 18.1725 20.437 20.2552C19.9163 20.7758 19.9163 21.62 20.437 22.1407C20.9577 22.6613 21.8019 22.6613 22.3225 22.1407C25.4465 19.0167 25.4466 13.9516 22.3225 10.8276Z" fill="#4472FF"/>
<path d="M2 11.6427C2 11.0904 2.44772 10.6427 3 10.6427H9.79644V21.3713H3C2.44772 21.3713 2 20.9236 2 20.3713V11.6427Z" fill="#0E45EE"/>
</g>
<defs>
<clipPath id="clip0_3580_58774">
<rect width="32" height="32" fill="white"/>
</clipPath>
</defs>
</svg>
