<svg width="32" height="32" viewBox="0 0 32 32" fill="none" xmlns="http://www.w3.org/2000/svg">
<g clip-path="url(#clip0_3580_58786)">
<path d="M18.0721 2.28748H8.00963C6.11608 2.28748 4.58105 3.8225 4.58105 5.71605V25.1446C4.58105 27.0382 6.11608 28.5732 8.00963 28.5732H21.7239C23.6175 28.5732 25.1525 27.0382 25.1525 25.1446V9.36782C25.1525 8.55076 24.8279 7.76717 24.2502 7.18943L20.2505 3.18977C19.6727 2.61204 18.8891 2.28748 18.0721 2.28748Z" fill="#FF64C0"/>
<path d="M11.6589 2.28748H21.7213C23.6149 2.28748 25.1499 3.8225 25.1499 5.71605V25.1446C25.1499 27.0382 23.6149 28.5732 21.7213 28.5732H8.00705C6.1135 28.5732 4.57848 27.0382 4.57848 25.1446V9.36782C4.57848 8.55076 4.90305 7.76717 5.4808 7.18943L9.4805 3.18977C10.0582 2.61204 10.8418 2.28748 11.6589 2.28748Z" fill="#FF64C0"/>
<path d="M23.1302 29.817C25.9705 29.817 28.273 27.5144 28.273 24.6741C28.273 21.8338 25.9705 19.5312 23.1302 19.5312C20.2898 19.5312 17.9873 21.8338 17.9873 24.6741C17.9873 27.5144 20.2898 29.817 23.1302 29.817Z" fill="#C12883"/>
<path d="M11.1982 6.39673H17.9069" stroke="white" stroke-width="1.6" stroke-linecap="round" stroke-linejoin="round"/>
<path d="M20.7002 24.8162L22.539 26.6551L25.5567 23.6375" stroke="white" stroke-width="1.12" stroke-linecap="round" stroke-linejoin="round"/>
</g>
<defs>
<clipPath id="clip0_3580_58786">
<rect width="32" height="32" fill="white"/>
</clipPath>
</defs>
</svg>
