<svg width="20" height="20" viewBox="0 0 20 20" fill="none" xmlns="http://www.w3.org/2000/svg">
<g clip-path="url(#clip0_18042_100249)">
<path d="M16.4862 14.895C16.4862 13.3747 16.4862 11.5671 16.4862 9.83846C16.4862 6.24812 13.5756 3.33789 9.98527 3.33789V3.33789C6.39492 3.33789 3.48438 6.24844 3.48438 9.83878V15.3357" stroke="#7F8A94" stroke-width="1.85714" stroke-linecap="round"/>
<path d="M13 12.3379C13 11.5095 13.6716 10.8379 14.5 10.8379H15.25C16.0784 10.8379 16.75 11.5095 16.75 12.3379V15.3379C16.75 16.1663 16.0784 16.8379 15.25 16.8379H14.5C13.6716 16.8379 13 16.1663 13 15.3379V12.3379Z" fill="#7F8A94" stroke="#7F8A94" stroke-width="1.35"/>
<path d="M6.98438 12.3379C6.98438 11.5095 6.3128 10.8379 5.48438 10.8379H4.73438C3.90595 10.8379 3.23438 11.5095 3.23438 12.3379V15.3379C3.23438 16.1663 3.90595 16.8379 4.73438 16.8379H5.48438C6.3128 16.8379 6.98438 16.1663 6.98438 15.3379V12.3379Z" fill="#7F8A94" stroke="#7F8A94" stroke-width="1.35"/>
</g>
<defs>
<clipPath id="clip0_18042_100249">
<rect width="20" height="20" fill="white"/>
</clipPath>
</defs>
</svg>
