<svg width="17" height="16" viewBox="0 0 17 16" fill="none" xmlns="http://www.w3.org/2000/svg">
<g clip-path="url(#clip0_694_16525)">
<path fill-rule="evenodd" clip-rule="evenodd" d="M8.49967 14.6667C12.1816 14.6667 15.1663 11.6819 15.1663 8C15.1663 4.3181 12.1816 1.33333 8.49967 1.33333C4.81778 1.33333 1.83301 4.3181 1.83301 8C1.83301 11.6819 4.81778 14.6667 8.49967 14.6667ZM11.6223 7.15302C11.8909 6.9012 11.9045 6.47931 11.6527 6.2107C11.4009 5.94209 10.979 5.92848 10.7104 6.1803L7.61079 9.08617L6.28897 7.84697C6.02036 7.59515 5.59847 7.60876 5.34665 7.87737C5.09483 8.14598 5.10844 8.56787 5.37705 8.81969L7.15483 10.4864C7.41126 10.7268 7.81031 10.7268 8.06675 10.4864L11.6223 7.15302Z" fill="#00AA02"/>
<path fill-rule="evenodd" clip-rule="evenodd" d="M6.69886 10.0589L5.37761 8.82021L5.37705 8.81969C5.10844 8.56787 5.09483 8.14598 5.34665 7.87737C5.59847 7.60876 6.02036 7.59515 6.28897 7.84697L6.28955 7.84751L7.61079 9.08617L10.7104 6.1803C10.979 5.92848 11.4009 5.94209 11.6527 6.2107C11.9045 6.47931 11.8909 6.9012 11.6223 7.15302L8.52271 10.0589L8.5218 10.0597L8.06675 10.4864C7.81031 10.7268 7.41126 10.7268 7.15483 10.4864L6.69886 10.0589ZM15.1663 8C15.1663 11.6819 12.1816 14.6667 8.49967 14.6667C4.81778 14.6667 1.83301 11.6819 1.83301 8C1.83301 4.3181 4.81778 1.33333 8.49967 1.33333C12.1816 1.33333 15.1663 4.3181 15.1663 8Z" fill="#00AA02"/>
</g>
<defs>
<clipPath id="clip0_694_16525">
<rect width="16" height="16" fill="white" transform="translate(0.5)"/>
</clipPath>
</defs>
</svg>
