<svg width="28" height="28" viewBox="0 0 28 28" fill="none" xmlns="http://www.w3.org/2000/svg">
<g clip-path="url(#clip0_15733_15029)">
<circle cx="14" cy="14" r="13.5" fill="white" stroke="#E7EBEE"/>
<path d="M15.0169 9.01344C15.0339 8.94999 15.0632 8.8905 15.1031 8.83837C15.1431 8.78625 15.193 8.74251 15.2498 8.70966C15.3067 8.67681 15.3695 8.65549 15.4346 8.64691C15.4998 8.63834 15.5659 8.64268 15.6294 8.65969C16.5563 8.90154 17.402 9.3861 18.0794 10.0635C18.7567 10.7408 19.2413 11.5865 19.4831 12.5134C19.5001 12.5769 19.5045 12.6431 19.4959 12.7082C19.4873 12.7733 19.466 12.8361 19.4332 12.893C19.4003 12.9499 19.3566 12.9997 19.3044 13.0397C19.2523 13.0797 19.1928 13.109 19.1294 13.1259C19.0872 13.1371 19.0437 13.1427 19 13.1428C18.8899 13.1429 18.7829 13.1065 18.6955 13.0395C18.6082 12.9725 18.5454 12.8785 18.5169 12.7722C18.3197 12.0154 17.9243 11.3249 17.3714 10.7718C16.8184 10.2188 16.128 9.82324 15.3713 9.62594C15.3077 9.60904 15.2482 9.57978 15.196 9.53983C15.1438 9.49989 15.1 9.45005 15.0671 9.39316C15.0342 9.33628 15.0128 9.27346 15.0042 9.2083C14.9956 9.14314 14.9999 9.07693 15.0169 9.01344ZM14.8713 11.6259C15.7331 11.8559 16.2869 12.4103 16.5169 13.2722C16.5454 13.3785 16.6082 13.4725 16.6955 13.5395C16.7829 13.6065 16.8899 13.6429 17 13.6428C17.0437 13.6427 17.0872 13.6371 17.1294 13.6259C17.1928 13.609 17.2523 13.5797 17.3044 13.5397C17.3566 13.4997 17.4003 13.4499 17.4332 13.393C17.466 13.3361 17.4873 13.2733 17.4959 13.2082C17.5045 13.1431 17.5001 13.0769 17.4831 13.0134C17.1631 11.8159 16.3269 10.9797 15.1294 10.6597C15.0012 10.6255 14.8648 10.6435 14.75 10.7099C14.6352 10.7763 14.5514 10.8856 14.5172 11.0138C14.483 11.1419 14.501 11.2784 14.5674 11.3932C14.6338 11.508 14.7431 11.5917 14.8713 11.6259ZM19.3981 16.5466L16.4538 15.2272L16.4456 15.2234C16.2928 15.1581 16.126 15.1318 15.9605 15.1471C15.7949 15.1624 15.6358 15.2187 15.4975 15.3109C15.4812 15.3217 15.4656 15.3334 15.4506 15.3459L13.9294 16.6428C12.9656 16.1747 11.9706 15.1872 11.5025 14.2359L12.8013 12.6916C12.8138 12.6759 12.8256 12.6603 12.8369 12.6434C12.9271 12.5055 12.9819 12.3474 12.9963 12.1832C13.0107 12.019 12.9843 11.8537 12.9194 11.7022V11.6947L11.5963 8.74532C11.5105 8.54736 11.363 8.38245 11.1757 8.27522C10.9885 8.16798 10.7717 8.12417 10.5575 8.15032C9.71061 8.26176 8.93324 8.67767 8.37059 9.32038C7.80794 9.96308 7.49847 10.7886 7.50001 11.6428C7.50001 16.6053 11.5375 20.6428 16.5 20.6428C17.3542 20.6443 18.1797 20.3349 18.8224 19.7722C19.4651 19.2096 19.8811 18.4322 19.9925 17.5853C20.0187 17.3712 19.975 17.1544 19.8679 16.9672C19.7607 16.78 19.596 16.6325 19.3981 16.5466Z" fill="#35C27B"/>
</g>
<defs>
<clipPath id="clip0_15733_15029">
<rect width="28" height="28" fill="white"/>
</clipPath>
</defs>
</svg>
