<svg width="24" height="25" viewBox="0 0 24 25" fill="none" xmlns="http://www.w3.org/2000/svg">
<g clip-path="url(#clip0_1518_686333)">
<path d="M13 17.5C13 18.0523 12.5523 18.5 12 18.5C11.4477 18.5 11 18.0523 11 17.5C11 16.9477 11.4477 16.5 12 16.5C12.5523 16.5 13 16.9477 13 17.5Z" fill="#4B506A"/>
<path fill-rule="evenodd" clip-rule="evenodd" d="M10.5 9.81C10.5 9.15946 11.0957 8.5 12 8.5C12.9043 8.5 13.5 9.15946 13.5 9.81C13.5 10.1112 13.2231 10.7704 12.5528 11.1056C11.6734 11.5452 11.3078 12.37 11.1531 12.9224C11.0719 13.2127 11.0344 13.4764 11.0166 13.6665C11.0076 13.7627 11.0034 13.8432 11.0015 13.9026C11.0005 13.9324 11.0001 13.9572 11 13.9762L11 14.0005L11 14.0093L11.0001 14.0129L11.0001 14.0159C11.0089 14.5681 11.4637 15.0087 12.0159 14.9999C12.5659 14.9911 13.0052 14.5394 13 13.9901C13 13.9871 13.0001 13.9794 13.0005 13.9675C13.0012 13.9435 13.0032 13.9038 13.008 13.8525C13.0178 13.7475 13.0383 13.6072 13.0791 13.4615C13.1686 13.1418 13.3029 12.9666 13.4472 12.8944C14.7769 12.2296 15.5 10.8888 15.5 9.81C15.5 7.90898 13.8571 6.5 12 6.5C10.1429 6.5 8.5 7.90898 8.5 9.81C8.5 10.3623 8.94772 10.81 9.5 10.81C10.0523 10.81 10.5 10.3623 10.5 9.81ZM12 14C11.0001 14.0159 11.0001 14.0159 11.0001 14.0159L12 14Z" fill="#4B506A"/>
<path fill-rule="evenodd" clip-rule="evenodd" d="M12 22.5C17.5228 22.5 22 18.0228 22 12.5C22 6.97715 17.5228 2.5 12 2.5C6.47715 2.5 2 6.97715 2 12.5C2 18.0228 6.47715 22.5 12 22.5ZM12 20.5C16.4183 20.5 20 16.9183 20 12.5C20 8.08172 16.4183 4.5 12 4.5C7.58172 4.5 4 8.08172 4 12.5C4 16.9183 7.58172 20.5 12 20.5Z" fill="#4B506A"/>
</g>
<defs>
<clipPath id="clip0_1518_686333">
<rect width="24" height="24" fill="white" transform="translate(0 0.5)"/>
</clipPath>
</defs>
</svg>
