<svg width="40" height="41" viewBox="0 0 40 41" fill="none" xmlns="http://www.w3.org/2000/svg">
<g clip-path="url(#clip0_17396_403703)">
<path d="M31.5 5.5H31.6667C33.5076 5.5 35 6.99238 35 8.83333V18.5H31.5V5.5Z" fill="#A8B3BD"/>
<path fill-rule="evenodd" clip-rule="evenodd" d="M8.33333 5.5C6.49238 5.5 5 6.99238 5 8.83333V35.5L8.125 33.4375L11.25 35.5L14.375 33.4375L17.5 35.5L20.625 33.4375L23.75 35.5L26.875 33.4375L30 35.5V7.16667C30 6.24619 29.2538 5.5 28.3333 5.5H8.33333ZM12.082 13.8359C11.3917 13.8359 10.832 14.3956 10.832 15.0859C10.832 15.7763 11.3917 16.3359 12.082 16.3359H22.9154C23.6057 16.3359 24.1654 15.7763 24.1654 15.0859C24.1654 14.3956 23.6057 13.8359 22.9154 13.8359H12.082ZM10.832 20.0859C10.832 19.3956 11.3917 18.8359 12.082 18.8359H22.9154C23.6057 18.8359 24.1654 19.3956 24.1654 20.0859C24.1654 20.7763 23.6057 21.3359 22.9154 21.3359H12.082C11.3917 21.3359 10.832 20.7763 10.832 20.0859ZM12.082 23.8359C11.3917 23.8359 10.832 24.3956 10.832 25.0859C10.832 25.7763 11.3917 26.3359 12.082 26.3359H22.9154C23.6057 26.3359 24.1654 25.7763 24.1654 25.0859C24.1654 24.3956 23.6057 23.8359 22.9154 23.8359H12.082Z" fill="#A8B3BD"/>
<path d="M31 37.5C34.3137 37.5 37 34.8137 37 31.5C37 28.1863 34.3137 25.5 31 25.5C27.6863 25.5 25 28.1863 25 31.5C25 34.8137 27.6863 37.5 31 37.5Z" fill="#7F8A94"/>
<path d="M33 29.5001L29 33.5001" stroke="white" stroke-width="1.25006" stroke-linecap="round"/>
<path d="M29 29.5L33 33.5" stroke="white" stroke-width="1.25006" stroke-linecap="round"/>
</g>
<defs>
<clipPath id="clip0_17396_403703">
<rect width="40" height="40" fill="white" transform="translate(0 0.5)"/>
</clipPath>
</defs>
</svg>
