<svg width="24" height="24" viewBox="0 0 24 24" fill="none" xmlns="http://www.w3.org/2000/svg">
<path d="M12.0039 23.4999C18.3552 23.4999 23.5039 18.3512 23.5039 11.9999C23.5039 5.64866 18.3552 0.499939 12.0039 0.499939C5.65263 0.499939 0.503906 5.64866 0.503906 11.9999C0.503906 18.3512 5.65263 23.4999 12.0039 23.4999Z" fill="#35C27B"/>
<path d="M2.28167 23.4542L9.38421 21.5489L2.45281 14.6093L0.549688 21.7202C0.267932 22.773 1.23015 23.7363 2.28167 23.4542Z" fill="#35C27B"/>
<path d="M17.2518 13.8723L14.9682 13.4153C14.6203 13.3476 14.2687 13.4765 14.0502 13.7558L13.0235 15.0738C11.7456 14.3466 10.668 13.2724 9.9384 11.9973L11.1638 11.2342C11.4898 11.0317 11.6563 10.6566 11.5882 10.2777L11.1312 7.76349C11.0502 7.32098 10.6652 6.99994 10.2156 6.99994H7.93085C7.41771 6.99994 7 7.41766 7 7.93083C7 9.36 7.29376 10.7417 7.87301 12.037C8.87616 14.2822 10.6614 16.0795 12.8999 17.0992C14.2121 17.6967 15.6152 17.9999 17.0691 17.9999C17.5823 17.9999 18 17.5826 18 17.0695V14.7846C18 14.3417 17.6852 13.9582 17.2518 13.8723Z" fill="white"/>
</svg>
