<svg width="24" height="24" viewBox="0 0 24 24" fill="none" xmlns="http://www.w3.org/2000/svg">
<g clip-path="url(#clip0_18042_336502)">
<path d="M21.2238 7.31542C21.1969 6.16257 20.2586 5.23535 19.0993 5.23535H4.9029C3.74364 5.23535 2.80532 6.16262 2.77842 7.31542L2.77344 7.31083V15.8287C2.77344 17.0049 3.7267 17.9581 4.9029 17.9581H19.0993C20.2755 17.9581 21.2288 17.0049 21.2288 15.8287V7.31083L21.2238 7.31542Z" fill="#A687FF"/>
<mask id="mask0_18042_336502" style="mask-type:luminance" maskUnits="userSpaceOnUse" x="2" y="5" width="20" height="13">
<path d="M21.2238 7.33398C21.1969 6.18113 20.2586 5.25391 19.0993 5.25391H4.9029C3.74364 5.25391 2.80532 6.18117 2.77842 7.33398L2.77344 7.32939V15.8472C2.77344 17.0234 3.7267 17.9767 4.9029 17.9767H19.0993C20.2755 17.9767 21.2288 17.0234 21.2288 15.8472V7.32939L21.2238 7.33398Z" fill="white"/>
</mask>
<g mask="url(#mask0_18042_336502)">
<path d="M21.2288 6.87207C21.2288 7.53292 20.9214 8.15685 20.3976 8.56002L13.7324 13.687C12.7116 14.4721 11.2906 14.4721 10.2699 13.687L3.60464 8.56002C3.08079 8.15685 2.77344 7.53292 2.77344 6.87207V2.95173C2.77344 1.77555 3.72673 0.822266 4.9029 0.822266H19.0993C20.2755 0.822266 21.2288 1.77555 21.2288 2.95173V6.87207Z" fill="#8155F8"/>
</g>
</g>
<defs>
<clipPath id="clip0_18042_336502">
<rect width="24" height="24" fill="white"/>
</clipPath>
</defs>
</svg>
