<svg width="40" height="40" viewBox="0 0 40 40" fill="none" xmlns="http://www.w3.org/2000/svg">
<g clip-path="url(#clip0_18042_71542)">
<path d="M13.9518 29.834C14.1415 29.6215 14.4129 29.5 14.6977 29.5H26.3023C26.5871 29.5 26.8585 29.6215 27.0482 29.834L32.405 35.8336C32.6351 36.0914 32.4522 36.5 32.1066 36.5H8.89338C8.54782 36.5 8.36486 36.0914 8.59501 35.8336L13.9518 29.834Z" fill="#DCE0E5"/>
<path fill-rule="evenodd" clip-rule="evenodd" d="M28.9628 20.9961C30.1777 19.289 30.8922 17.201 30.8922 14.9461C30.8922 9.17687 26.2153 4.5 20.4461 4.5C14.6769 4.5 10 9.17687 10 14.9461C10 17.2259 10.7303 19.3352 11.9698 21.0526L19.6952 31.9315C20.0955 32.4952 20.9334 32.4923 21.3298 31.9258L28.9776 20.9961H28.9628ZM25.5442 14.9457C25.5442 17.7615 23.2615 20.0442 20.4457 20.0442C17.6299 20.0442 15.3473 17.7615 15.3473 14.9457C15.3473 12.1299 17.6299 9.84726 20.4457 9.84726C23.2615 9.84726 25.5442 12.1299 25.5442 14.9457Z" fill="#A8B3BD"/>
<path d="M29 16.5C32.3137 16.5 35 13.8137 35 10.5C35 7.18629 32.3137 4.5 29 4.5C25.6863 4.5 23 7.18629 23 10.5C23 13.8137 25.6863 16.5 29 16.5Z" fill="#7F8A94"/>
<path d="M31 8.5L27 12.5" stroke="white" stroke-width="1.25006" stroke-linecap="round"/>
<path d="M27 8.5L31 12.5" stroke="white" stroke-width="1.25006" stroke-linecap="round"/>
</g>
<defs>
<clipPath id="clip0_18042_71542">
<rect width="40" height="40" fill="white"/>
</clipPath>
</defs>
</svg>
