<svg width="40" height="40" viewBox="0 0 40 40" fill="none" xmlns="http://www.w3.org/2000/svg">
<path d="M31.9817 8.01954C30.4112 6.43356 28.5429 5.17351 26.484 4.31177C24.4251 3.45003 22.2163 3.00359 19.9843 2.9981C17.7524 2.9926 15.5413 3.42817 13.4782 4.27976C11.4151 5.13135 9.54061 6.38219 7.96238 7.96042C6.38415 9.53865 5.13331 11.4132 4.28171 13.4763C3.43012 15.5394 2.99456 17.7504 3.00005 19.9824C3.00554 22.2143 3.45198 24.4232 4.31372 26.4821C5.17546 28.5409 6.43551 30.4093 8.02149 31.9797C9.59194 33.5657 11.4603 34.8258 13.5192 35.6875C15.578 36.5492 17.7869 36.9957 20.0189 37.0012C22.2508 37.0067 24.4618 36.5711 26.5249 35.7195C28.5881 34.8679 30.4626 33.6171 32.0408 32.0388C33.619 30.4606 34.8699 28.5861 35.7215 26.523C36.5731 24.4599 37.0086 22.2488 37.0031 20.0169C36.9976 17.785 36.5512 15.5761 35.6894 13.5172C34.8277 11.4583 33.5677 9.58998 31.9817 8.01954ZM5.47935 19.9996C5.47878 18.7143 5.64919 17.4347 5.98611 16.1944C6.54128 17.3894 7.34757 18.4219 7.89594 19.6479C8.60465 21.2242 10.5077 20.787 11.348 22.1681C12.0938 23.3942 11.2973 24.9448 11.8555 26.2276C12.2609 27.1586 13.217 27.3621 13.8765 28.0428C14.5505 28.7296 14.5361 29.6705 14.6389 30.5661C14.7549 31.6183 14.9432 32.6613 15.2024 33.6876C15.2024 33.6952 15.2024 33.7035 15.2085 33.711C9.5486 31.7233 5.47935 26.3282 5.47935 19.9996ZM20.0016 34.5219C19.1906 34.5217 18.381 34.4539 17.5812 34.3192C17.5895 34.1142 17.5933 33.9228 17.6137 33.7897C17.7975 32.5871 18.3996 31.4109 19.2119 30.5109C20.0144 29.6229 21.1142 29.0223 21.7919 28.0149C22.456 27.0316 22.6549 25.7079 22.3811 24.559C21.978 22.8617 19.6718 22.2952 18.4283 21.3747C17.7136 20.8452 17.0775 20.0269 16.1388 19.9603C15.7062 19.93 15.3439 20.0231 14.915 19.9126C14.5217 19.8105 14.2131 19.5988 13.7941 19.654C13.0112 19.7568 12.5173 20.5934 11.6763 20.4799C10.8783 20.3733 10.0561 19.4392 9.87459 18.679C9.64163 17.7018 10.4146 17.3849 11.2429 17.2979C11.5885 17.2616 11.9765 17.2223 12.3086 17.3493C12.7458 17.5112 12.9522 17.9393 13.3448 18.1556C14.0807 18.5595 14.2298 17.9143 14.1171 17.2608C13.9484 16.2821 13.7517 15.8835 14.6246 15.2096C15.2297 14.7452 15.747 14.4093 15.6502 13.5751C15.5927 13.0849 15.3242 12.8633 15.5746 12.3755C15.7644 12.0041 16.2856 11.669 16.6252 11.4474C17.5018 10.8756 20.3805 10.9179 19.2044 9.31747C18.8587 8.84776 18.2211 8.0082 17.616 7.89323C16.8596 7.75027 16.5238 8.59438 15.9966 8.96651C15.452 9.3515 14.3916 9.78868 13.8463 9.19342C13.1126 8.39243 14.3326 8.12997 14.6026 7.57026C14.7274 7.30931 14.6026 6.94701 14.3924 6.60589C14.6652 6.49092 14.9425 6.38428 15.2244 6.28595C15.401 6.41642 15.6106 6.49501 15.8295 6.51286C16.3355 6.54614 16.8127 6.27233 17.2545 6.61724C17.7446 6.99542 18.0978 7.47344 18.7483 7.59144C19.3776 7.70565 20.0439 7.33881 20.1998 6.69439C20.2943 6.30259 20.1998 5.88886 20.109 5.4842C22.9378 5.50048 25.6995 6.34766 28.0508 7.92046C27.8996 7.86297 27.7188 7.86978 27.4957 7.9734C27.0366 8.1867 26.3861 8.72977 26.3324 9.2683C26.2711 9.87945 27.1727 9.96567 27.6008 9.96567C28.2437 9.96567 28.8949 9.67825 28.6877 8.9355C28.5977 8.61329 28.4752 8.27822 28.2778 8.07551C28.7523 8.40476 29.2069 8.76189 29.6392 9.14501C29.6324 9.15182 29.6256 9.15787 29.6188 9.16544C29.1831 9.61926 28.6771 9.97853 28.3791 10.5307C28.1688 10.9195 27.9321 11.104 27.5063 11.2046C27.2718 11.2598 27.004 11.2802 26.8074 11.4376C26.2598 11.8687 26.5714 12.9049 27.0903 13.2158C27.746 13.6083 28.7187 13.4238 29.2134 12.8633C29.5999 12.4246 29.8275 11.663 30.5226 11.6637C30.8287 11.6631 31.1226 11.7829 31.341 11.9973C31.6285 12.2953 31.5717 12.5736 31.633 12.9458C31.7412 13.6068 32.3243 13.2483 32.679 12.9147C32.9376 13.3749 33.1709 13.8489 33.3779 14.3344C32.9876 14.8964 32.6775 15.5091 31.7389 14.8541C31.1769 14.4615 30.8312 13.892 30.1256 13.715C29.5091 13.5637 28.8775 13.721 28.2687 13.8262C27.5766 13.9464 26.7559 13.9994 26.231 14.5235C25.7235 15.0288 25.455 15.705 24.9149 16.2125C23.8704 17.1958 23.4294 18.2691 24.1056 19.6593C24.7561 20.9958 26.1168 21.7211 27.5849 21.6258C29.0273 21.5298 30.5257 20.6932 30.4841 22.7891C30.4689 23.5311 30.624 24.0447 30.8517 24.7337C31.0627 25.3691 31.0483 25.9848 31.0967 26.6405C31.1428 27.4084 31.2628 28.1701 31.4552 28.9149C30.0995 30.6604 28.3628 32.073 26.3777 33.0448C24.3927 34.0166 22.2117 34.5218 20.0016 34.5219Z" fill="#A8B3BD"/>
<path d="M29.1028 36.871C30.8089 36.871 32.386 36.3186 33.6649 35.3829L37.5363 39.2542C38.0013 39.7192 38.7551 39.7192 39.22 39.2542C39.685 38.7893 39.685 38.0354 39.22 37.5705L35.3487 33.6991C36.2844 32.4202 36.8369 30.8431 36.8369 29.137C36.8369 24.8656 33.3742 21.4029 29.1028 21.4029C24.8314 21.4029 21.3687 24.8656 21.3687 29.137C21.3687 33.4084 24.8314 36.871 29.1028 36.871ZM34.4557 29.137C34.4557 32.0933 32.0591 34.4899 29.1028 34.4899C26.1465 34.4899 23.7499 32.0933 23.7499 29.137C23.7499 26.1807 26.1465 23.7841 29.1028 23.7841C32.0591 23.7841 34.4557 26.1807 34.4557 29.137Z" fill="#7F8A94" stroke="#7F8A94" stroke-width="0.2" stroke-linecap="round" stroke-linejoin="round"/>
<path d="M34.3374 29.1433C34.3374 32.0303 31.9971 34.3706 29.1101 34.3706C26.2232 34.3706 23.8828 32.0303 23.8828 29.1433C23.8828 26.2564 26.2232 23.916 29.1101 23.916C31.9971 23.916 34.3374 26.2564 34.3374 29.1433Z" fill="white" fill-opacity="0.8"/>
</svg>
