<svg width="40" height="40" viewBox="0 0 40 40" fill="none" xmlns="http://www.w3.org/2000/svg">
<g clip-path="url(#clip0_18042_244348)">
<path d="M31.4 9.5H8.6C6.61177 9.5 5 10.9607 5 12.7625V27.9875C5 29.7893 6.61177 31.25 8.6 31.25H31.4C33.3882 31.25 35 29.7893 35 27.9875V12.7625C35 10.9607 33.3882 9.5 31.4 9.5Z" fill="#A8B3BD"/>
<path d="M5 12.5208C5 10.8523 6.61172 9.5 8.6 9.5H31.4C33.3883 9.5 35 10.8523 35 12.5208V15.5417H5V12.5208Z" fill="#7F8A94"/>
<path d="M8.72571 25.4844H13.6286C14.3055 25.4844 14.8543 26.0118 14.8543 26.6625C14.8543 27.3132 14.3055 27.8406 13.6286 27.8406H8.72571C8.04877 27.8406 7.5 27.3132 7.5 26.6625C7.5 26.0118 8.04877 25.4844 8.72571 25.4844Z" fill="#7F8A94"/>
<path d="M31 37C34.3137 37 37 34.3137 37 31C37 27.6863 34.3137 25 31 25C27.6863 25 25 27.6863 25 31C25 34.3137 27.6863 37 31 37Z" fill="#7F8A94"/>
<path d="M28.7578 31.1279L30.182 32.5668C30.3443 32.7309 30.6115 32.7239 30.765 32.5515L33.4414 29.5469" stroke="white" stroke-width="1.4" stroke-linecap="round"/>
</g>
<defs>
<clipPath id="clip0_18042_244348">
<rect width="40" height="40" fill="white"/>
</clipPath>
</defs>
</svg>
