<svg width="28" height="28" viewBox="0 0 28 28" fill="none" xmlns="http://www.w3.org/2000/svg">
<g clip-path="url(#clip0_3509_510640)">
<rect width="28" height="28" rx="14" fill="#9099D1"/>
<rect x="2.41406" y="2.41504" width="23.1724" height="23.1724" rx="11.5862" fill="#9099D1"/>
<path d="M2.29719 14.7707C2.29719 16.8859 3.72111 18.6406 4.95504 18.6406C6.18896 18.6406 6.76562 16.8859 6.76562 14.7707C6.76562 12.6555 6.18896 10.9805 4.95504 10.9805C3.72111 10.9805 2.29719 12.6555 2.29719 14.7707Z" fill="#6B76C5"/>
<path d="M3.97102 14.8093C3.97102 17.2771 4.97131 19.2777 6.20524 19.2777C7.8809 19.2777 8.43945 17.2771 8.43945 14.8093C8.43945 12.3414 8.16018 10.3408 6.20524 10.3408C4.97131 10.3408 3.97102 12.3414 3.97102 14.8093Z" fill="#4F5380"/>
<path d="M10.8913 22.8056C9.79669 22.8054 7.99336 26.2694 7.22852 28.0014H20.7769C20.7769 28.0014 18.9675 23.3086 17.114 22.8056C15.2605 22.3026 11.9859 22.8057 10.8913 22.8056Z" fill="#DFD9D6"/>
<circle cx="14.0189" cy="14.8099" r="8.93687" fill="#E5E2E1"/>
<ellipse cx="12.3472" cy="14.8087" rx="6.1441" ry="6.41123" fill="#C9CED7"/>
<path d="M20.7243 18.165C20.022 18.678 18.145 19.4519 16.2559 19.5614" stroke="#6B76C5" stroke-width="0.549571" stroke-linecap="round"/>
<path d="M24.6442 14.8093C24.6442 17.2771 23.6439 19.2777 22.41 19.2777C20.7343 19.2777 20.1758 17.2771 20.1758 14.8093C20.1758 12.3414 20.4551 10.3408 22.41 10.3408C23.6439 10.3408 24.6442 12.3414 24.6442 14.8093Z" fill="#4F5380"/>
<path d="M26.3122 14.7707C26.3122 16.8859 24.8883 18.6406 23.6543 18.6406C22.4204 18.6406 21.8438 16.8859 21.8438 14.7707C21.8438 12.6555 22.4204 10.9805 23.6543 10.9805C24.8883 10.9805 26.3122 12.6555 26.3122 14.7707Z" fill="#6B76C5"/>
<rect x="13.4707" y="18.9473" width="3.35133" height="1.67566" rx="0.837832" transform="rotate(-3.92822 13.4707 18.9473)" fill="#4F5380"/>
</g>
<defs>
<clipPath id="clip0_3509_510640">
<rect width="28" height="28" rx="14" fill="white"/>
</clipPath>
</defs>
</svg>
