<svg width="25" height="24" viewBox="0 0 25 24" fill="none" xmlns="http://www.w3.org/2000/svg">
<path fill-rule="evenodd" clip-rule="evenodd" d="M22.5 12C22.5 17.5228 18.0228 22 12.5 22C6.97715 22 2.5 17.5228 2.5 12C2.5 6.47715 6.97715 2 12.5 2C18.0228 2 22.5 6.47715 22.5 12ZM10.2071 8.29289C9.81658 7.90237 9.18342 7.90237 8.79289 8.29289C8.40237 8.68342 8.40237 9.31658 8.79289 9.70711L11.0858 12L8.79289 14.2929C8.40237 14.6834 8.40237 15.3166 8.79289 15.7071C9.18342 16.0976 9.81658 16.0976 10.2071 15.7071L12.5 13.4142L14.7929 15.7071C15.1834 16.0976 15.8166 16.0976 16.2071 15.7071C16.5976 15.3166 16.5976 14.6834 16.2071 14.2929L13.9142 12L16.2071 9.70711C16.5976 9.31658 16.5976 8.68342 16.2071 8.29289C15.8166 7.90237 15.1834 7.90237 14.7929 8.29289L12.5 10.5858L10.2071 8.29289Z" fill="#7F8A94"/>
</svg>
