<svg width="33" height="33" viewBox="0 0 33 33" fill="none" xmlns="http://www.w3.org/2000/svg">
<circle cx="16.0688" cy="16.0688" r="16.0688" fill="#F6F7FC"/>
<path fill-rule="evenodd" clip-rule="evenodd" d="M17.1076 22.107C16.7171 22.4975 16.0839 22.4975 15.6934 22.107C15.3028 21.7165 15.3028 21.0833 15.6934 20.6927L18.9862 17.3998H11.4004C10.8481 17.3998 10.4004 16.9521 10.4004 16.3998C10.4004 15.8475 10.8481 15.3997 11.4004 15.3997H18.9859L15.6934 12.1071C15.3028 11.7165 15.3028 11.0833 15.6934 10.6928C16.0839 10.3023 16.7171 10.3023 17.1076 10.6928L22.096 15.6813C22.2837 15.8631 22.4004 16.1178 22.4004 16.3998C22.4004 16.5392 22.3719 16.6719 22.3204 16.7924C22.2717 16.9067 22.2007 17.0138 22.1074 17.107L17.1076 22.107Z" fill="#4B506A"/>
</svg>
