<svg width="32" height="32" viewBox="0 0 32 32" fill="none" xmlns="http://www.w3.org/2000/svg">
<g clip-path="url(#clip0_3580_58805)">
<circle cx="6.2735" cy="14.1462" r="5.2735" fill="#F4A800"/>
<circle cx="25.7261" cy="14.1462" r="5.2735" fill="#F4A800"/>
<path d="M15.9998 27.4472C22.6878 27.4472 28.1095 22.0255 28.1095 15.3376C28.1095 8.64958 22.6878 3.22791 15.9998 3.22791C9.31182 3.22791 3.89014 8.64958 3.89014 15.3376C3.89014 22.0255 9.31182 27.4472 15.9998 27.4472Z" fill="#FFD874"/>
<path d="M5.22463 28.0153L13.0964 25.9061L5.4143 18.224L3.30507 26.0958C2.9928 27.2612 4.05922 28.3276 5.22463 28.0153Z" fill="#FFD874"/>
<path d="M12.6835 12.2651C12.6835 12.6718 12.3539 13.0014 11.9472 13.0014C11.5406 13.0014 11.2109 12.6718 11.2109 12.2651C11.2109 11.8585 11.5406 11.5288 11.9472 11.5288C12.3539 11.5288 12.6835 11.8585 12.6835 12.2651Z" fill="white" stroke="white" stroke-width="2"/>
<path d="M20.7963 12.2651C20.7963 12.6718 20.4667 13.0014 20.06 13.0014C19.6534 13.0014 19.3237 12.6718 19.3237 12.2651C19.3237 11.8585 19.6534 11.5288 20.06 11.5288C20.4667 11.5288 20.7963 11.8585 20.7963 12.2651Z" fill="white" stroke="white" stroke-width="2"/>
<path d="M11.3706 18.6927C12.2714 19.551 14.0765 20.1387 16.1662 20.1387C18.2558 20.1387 20.0609 19.551 20.9617 18.6927" stroke="white" stroke-width="2" stroke-linecap="round" stroke-linejoin="round"/>
</g>
<defs>
<clipPath id="clip0_3580_58805">
<rect width="32" height="32" fill="white"/>
</clipPath>
</defs>
</svg>
