<svg width="28" height="28" viewBox="0 0 28 28" fill="none" xmlns="http://www.w3.org/2000/svg">
<g clip-path="url(#clip0_15733_13662)">
<circle cx="14" cy="14" r="13.5" fill="white" stroke="#E7EBEE"/>
<path d="M7.95564 11.1238C7.51635 11.5838 7.82747 12.3704 8.44874 12.3704H9.25569L9.25569 18.7698C9.25569 19.1731 9.56789 19.5 9.95302 19.5H11.5469C11.9321 19.5 12.2443 19.1731 12.2443 18.7698V12.3704H13.0513C13.6725 12.3704 13.9837 11.5838 13.5444 11.1238L11.2431 8.71389C10.9708 8.42871 10.5292 8.4287 10.2569 8.71388L7.95564 11.1238Z" fill="#79D5CF"/>
<path d="M15.7557 9.23025C15.7557 8.82694 16.0679 8.5 16.4531 8.5H18.047C18.4321 8.5 18.7443 8.82694 18.7443 9.23025V15.6296H19.5513C20.1725 15.6296 20.4837 16.4162 20.0444 16.8762L17.7431 19.2861C17.4708 19.5713 17.0292 19.5713 16.7569 19.2861L14.4556 16.8762C14.0163 16.4162 14.3275 15.6296 14.9487 15.6296H15.7557V9.23025Z" fill="#08B6AC"/>
</g>
<defs>
<clipPath id="clip0_15733_13662">
<rect width="28" height="28" fill="white"/>
</clipPath>
</defs>
</svg>
