<svg width="30" height="30" viewBox="0 0 30 30" fill="none" xmlns="http://www.w3.org/2000/svg">
<rect width="30" height="30" rx="8" fill="#79D5CF"/>
<mask id="mask0_1518_796088" style="mask-type:alpha" maskUnits="userSpaceOnUse" x="0" y="0" width="30" height="30">
<rect width="30" height="30" rx="8" fill="#FF515E"/>
</mask>
<g mask="url(#mask0_1518_796088)">
<path d="M8.16606 9.16004C9.7816 5.80212 12.3085 5.67493 13.3699 6.03107C15.4671 4.58082 16.4767 4.73393 19.1951 6.03107C21.9136 7.32821 23.001 10.6103 23.7777 13.2814C24.5544 15.9524 23.3893 20.3025 23.3116 21.5999C23.234 22.8972 23.8553 22.9736 24.2437 23.5078C24.632 24.042 20.9816 24.4236 21.0592 24.4236C21.1214 24.4236 21.4476 24.9323 21.6029 25.1867C21.168 25.4309 19.8165 25.2885 19.1951 25.1867C18.8845 26.4078 19.7523 26.6262 20.5 27C21.5 27.5 23.3883 28.3737 27.0388 29.4421C29.9592 30.2969 30.8964 34.0211 31 35.7764H-1C-0.585761 34.5808 0.568932 31.8232 1.87379 30.3579C3.50485 28.5263 8 27.5 9.79612 27C11.9266 26.4069 11.5317 26.3315 11.2728 25.1867C10.4961 25.492 8.4767 25.4157 8.86504 25.1867C9.17572 25.0036 9.20161 24.6016 9.17572 24.4236C8.43009 24.3015 6.89744 23.7622 6.22431 23.5078C6.40553 23.3297 6.86116 22.8209 7.23398 22.2104C7.7 21.4472 6.37965 18.6235 6.22431 17.0209C6.06897 15.4182 6.14664 13.3574 8.16606 9.16004Z" fill="#08B6AC"/>
</g>
</svg>
