<svg width="17" height="16" viewBox="0 0 17 16" fill="none" xmlns="http://www.w3.org/2000/svg">
<g clip-path="url(#clip0_694_15038)">
<path fill-rule="evenodd" clip-rule="evenodd" d="M8.50065 14.6667C12.1825 14.6667 15.1673 11.6819 15.1673 8.00002C15.1673 4.31813 12.1825 1.33336 8.50065 1.33336C4.81875 1.33336 1.83398 4.31813 1.83398 8.00002C1.83398 11.6819 4.81875 14.6667 8.50065 14.6667ZM8.50068 4.66669C8.94251 4.66669 9.30068 4.96517 9.30068 5.33336V8.66669C9.30068 9.03488 8.94251 9.33336 8.50068 9.33336C8.05886 9.33336 7.70068 9.03488 7.70068 8.66669V5.33336C7.70068 4.96517 8.05886 4.66669 8.50068 4.66669ZM8.50068 11.6C8.94251 11.6 9.30068 11.2419 9.30068 10.8C9.30068 10.3582 8.94251 10 8.50068 10C8.05886 10 7.70068 10.3582 7.70068 10.8C7.70068 11.2419 8.05886 11.6 8.50068 11.6Z" fill="#E22A21"/>
</g>
<defs>
<clipPath id="clip0_694_15038">
<rect width="16" height="16" fill="white" transform="translate(0.5)"/>
</clipPath>
</defs>
</svg>
