<svg width="48" height="49" viewBox="0 0 48 49" fill="none" xmlns="http://www.w3.org/2000/svg">
<g clip-path="url(#clip0_1518_289179)">
<rect y="0.5" width="48" height="48" rx="24" fill="white"/>
<rect x="4.13672" y="4.63721" width="39.7241" height="39.7241" rx="19.8621" fill="white"/>
<path d="M3.93748 25.8198C3.93748 29.4458 6.3785 32.454 8.49379 32.454C10.6091 32.454 11.5977 29.4458 11.5977 25.8198C11.5977 22.1937 10.6091 19.3223 8.49379 19.3223C6.3785 19.3223 3.93748 22.1937 3.93748 25.8198Z" fill="#6B76C5"/>
<path d="M6.80662 25.8872C6.80662 30.1178 8.52141 33.5474 10.6367 33.5474C13.5093 33.5474 14.4668 30.1178 14.4668 25.8872C14.4668 21.6566 13.988 18.2271 10.6367 18.2271C8.52141 18.2271 6.80662 21.6566 6.80662 25.8872Z" fill="#4F5380"/>
<path d="M18.6658 39.5922C16.7893 39.592 13.6979 45.5302 12.3867 48.4993H35.6125C35.6125 48.4993 32.5107 40.4544 29.3333 39.5922C26.1558 38.7299 20.5422 39.5924 18.6658 39.5922Z" fill="#DFD9D6"/>
<circle cx="24.045" cy="25.8843" r="15.3204" fill="#E5E2E1"/>
<ellipse cx="21.1714" cy="25.8794" rx="10.5327" ry="10.9907" fill="#C9CED7"/>
<path d="M35.5371 31.6304C34.3331 32.5097 31.1155 33.8365 27.877 34.0242" stroke="#6B76C5" stroke-width="0.942122" stroke-linecap="round"/>
<path d="M42.2383 25.8872C42.2383 30.1178 40.5235 33.5474 38.4082 33.5474C35.5356 33.5474 34.5781 30.1178 34.5781 25.8872C34.5781 21.6566 35.0569 18.2271 38.4082 18.2271C40.5235 18.2271 42.2383 21.6566 42.2383 25.8872Z" fill="#4F5380"/>
<path d="M45.1113 25.8198C45.1113 29.4458 42.6703 32.454 40.555 32.454C38.4397 32.454 37.4512 29.4458 37.4512 25.8198C37.4512 22.1937 38.4397 19.3223 40.555 19.3223C42.6703 19.3223 45.1113 22.1937 45.1113 25.8198Z" fill="#6B76C5"/>
<rect x="23.0898" y="32.9854" width="5.74513" height="2.87257" rx="1.43628" transform="rotate(-3.92822 23.0898 32.9854)" fill="#4F5380"/>
</g>
<defs>
<clipPath id="clip0_1518_289179">
<rect y="0.5" width="48" height="48" rx="24" fill="white"/>
</clipPath>
</defs>
</svg>
