<svg width="17" height="17" viewBox="0 0 17 17" fill="none" xmlns="http://www.w3.org/2000/svg">
<path fill-rule="evenodd" clip-rule="evenodd" d="M8.97153 12.3047C8.71118 12.5651 8.28907 12.5651 8.02872 12.3047C7.76837 12.0444 7.76837 11.6223 8.02872 11.3619L10.2239 9.16675H5.16679C4.7986 9.16675 4.50012 8.86827 4.50012 8.50008C4.50012 8.13189 4.7986 7.83341 5.16679 7.83341H10.2237L8.02872 5.6384C7.76837 5.37805 7.76837 4.95594 8.02872 4.69559C8.28907 4.43524 8.71118 4.43524 8.97153 4.69559L12.2971 8.02113C12.4222 8.14232 12.5 8.31211 12.5 8.50008C12.5 8.59299 12.481 8.68147 12.4467 8.76183C12.4142 8.83803 12.3669 8.90941 12.3047 8.97157L8.97153 12.3047Z" fill="#7F8A94"/>
</svg>
