<svg width="48" height="49" viewBox="0 0 48 49" fill="none" xmlns="http://www.w3.org/2000/svg">
<g clip-path="url(#clip0_1518_289231)">
<ellipse cx="24" cy="24.5" rx="24" ry="24" fill="white"/>
<path d="M16.6055 11.6675C19.5915 8.68142 24.4329 8.68142 27.419 11.6675" stroke="#0B2E62" stroke-width="1.728" stroke-linecap="round"/>
<path d="M18.5254 13.5576C20.4605 11.6225 23.598 11.6225 25.5332 13.5576" stroke="#0B2E62" stroke-width="1.536" stroke-linecap="round"/>
<path d="M20.25 15.3799C21.2244 14.4054 22.8043 14.4054 23.7787 15.3799" stroke="#0B2E62" stroke-width="1.44" stroke-linecap="round"/>
<path fill-rule="evenodd" clip-rule="evenodd" d="M12.8931 26.4201C12.993 26.4201 13.0896 26.3838 13.1648 26.318L21.6008 18.9365C21.9092 18.6666 22.3712 18.6715 22.6739 18.9479L30.6271 26.2095C30.7755 26.345 30.9691 26.4201 31.17 26.4201H34.7153C35.16 26.4201 35.5205 26.7806 35.5205 27.2253V38.0949C35.5205 38.5396 35.16 38.9001 34.7153 38.9001H13.2856C12.841 38.9001 12.4805 38.5396 12.4805 38.0949V26.9168V26.8327C12.4805 26.6048 12.6652 26.4201 12.8931 26.4201Z" fill="#72BDF8"/>
<path d="M35.8313 20.48H25.3642C24.4749 20.48 23.7539 21.2009 23.7539 22.0903V25.3109C23.7539 26.2003 24.4749 26.9213 25.3642 26.9213H35.8313C36.7207 26.9213 37.4416 26.2003 37.4416 25.3109V22.0903C37.4416 21.2009 36.7207 20.48 35.8313 20.48Z" fill="#2180CB"/>
<path d="M21.6008 18.9363L12.4805 26.9166H31.4018L22.6739 18.9477C22.3712 18.6713 21.9092 18.6664 21.6008 18.9363Z" fill="#72BDF8"/>
<path d="M12.4805 26.8997L21.4425 19.282C21.8081 18.9713 22.3469 18.9781 22.7044 19.298L31.2005 26.8997" stroke="#0B2E62" stroke-width="2.304" stroke-linecap="round"/>
<rect x="18.1211" y="28.5273" width="2.88" height="2.88" rx="0.322065" fill="white"/>
<rect x="22.1484" y="28.5273" width="2.88" height="2.88" rx="0.322065" fill="white"/>
<rect x="18.1211" y="32.3672" width="2.88" height="2.88" rx="0.322065" fill="white"/>
<rect x="22.1484" y="32.3672" width="2.88" height="2.88" rx="0.322065" fill="white"/>
</g>
<defs>
<clipPath id="clip0_1518_289231">
<rect y="0.5" width="48" height="48" rx="24" fill="white"/>
</clipPath>
</defs>
</svg>
