<svg width="16" height="15" viewBox="0 0 16 15" fill="none" xmlns="http://www.w3.org/2000/svg">
<path fill-rule="evenodd" clip-rule="evenodd" d="M15.498 11.525V1.25C15.498 0.835786 15.1623 0.5 14.748 0.5H1.24805C0.833833 0.5 0.498047 0.835787 0.498047 1.25V13.5926C0.498047 14.2739 1.33314 14.6023 1.79719 14.1034L3.49805 12.275H14.748C15.1623 12.275 15.498 11.9392 15.498 11.525ZM7.99805 9.5C7.58383 9.5 7.24805 9.16421 7.24805 8.75V8.375C7.24805 7.96079 7.58383 7.625 7.99805 7.625C8.41226 7.625 8.74805 7.96079 8.74805 8.375V8.75C8.74805 9.16421 8.41226 9.5 7.99805 9.5ZM7.24805 5.75C7.24805 6.16421 7.58383 6.5 7.99805 6.5C8.41226 6.5 8.74805 6.16421 8.74805 5.75V3.5C8.74805 3.08579 8.41226 2.75 7.99805 2.75C7.58383 2.75 7.24805 3.08579 7.24805 3.5V5.75Z" fill="#E30084"/>
<path fill-rule="evenodd" clip-rule="evenodd" d="M0.698907 13.0818L0.699592 13.081L0.698907 13.0818ZM8.5944 7.92012C8.45736 7.74073 8.24122 7.625 7.99805 7.625C7.75487 7.625 7.53873 7.74073 7.40169 7.92012C7.3053 8.04629 7.24805 8.20396 7.24805 8.375V8.75C7.24805 9.16421 7.58383 9.5 7.99805 9.5C8.41226 9.5 8.74805 9.16421 8.74805 8.75V8.375C8.74805 8.20396 8.69079 8.04629 8.5944 7.92012ZM8.5944 6.20488C8.69079 6.07871 8.74805 5.92104 8.74805 5.75V3.5C8.74805 3.08579 8.41226 2.75 7.99805 2.75C7.58383 2.75 7.24805 3.08579 7.24805 3.5V5.75C7.24805 5.92104 7.3053 6.07871 7.40169 6.20488C7.53873 6.38427 7.75487 6.5 7.99805 6.5C8.24122 6.5 8.45736 6.38427 8.5944 6.20488ZM15.498 1.25V11.525C15.498 11.9392 15.1623 12.275 14.748 12.275H3.49805L1.79719 14.1034C1.33314 14.6023 0.498047 14.2739 0.498047 13.5926V1.25C0.498047 0.835787 0.833833 0.5 1.24805 0.5H14.748C15.1623 0.5 15.498 0.835786 15.498 1.25Z" fill="#E30084"/>
</svg>
