<svg width="16" height="16" viewBox="0 0 16 16" fill="none" xmlns="http://www.w3.org/2000/svg">
<g clip-path="url(#clip0_15940_69436)">
<path fill-rule="evenodd" clip-rule="evenodd" d="M7.9987 14.6673C11.6806 14.6673 14.6654 11.6825 14.6654 8.00065C14.6654 4.31875 11.6806 1.33398 7.9987 1.33398C4.3168 1.33398 1.33203 4.31875 1.33203 8.00065C1.33203 11.6825 4.3168 14.6673 7.9987 14.6673ZM7.99873 4.66732C8.44056 4.66732 8.79873 4.96579 8.79873 5.33398V8.66732C8.79873 9.03551 8.44056 9.33398 7.99873 9.33398C7.5569 9.33398 7.19873 9.03551 7.19873 8.66732V5.33398C7.19873 4.96579 7.5569 4.66732 7.99873 4.66732ZM7.99873 11.6006C8.44056 11.6006 8.79873 11.2425 8.79873 10.8007C8.79873 10.3588 8.44056 10.0007 7.99873 10.0007C7.5569 10.0007 7.19873 10.3588 7.19873 10.8007C7.19873 11.2425 7.5569 11.6006 7.99873 11.6006Z" fill="white"/>
</g>
<defs>
<clipPath id="clip0_15940_69436">
<rect width="16" height="16" fill="white"/>
</clipPath>
</defs>
</svg>
