<svg width="16" height="16" viewBox="0 0 16 16" fill="none" xmlns="http://www.w3.org/2000/svg">
<g clip-path="url(#clip0_16344_30754)">
<path d="M8.66699 3.33329C8.66699 2.9651 8.36852 2.66663 8.00033 2.66663C7.63214 2.66663 7.33366 2.9651 7.33366 3.33329L7.33366 7.33329H3.33366C2.96547 7.33329 2.66699 7.63177 2.66699 7.99996C2.66699 8.36815 2.96547 8.66663 3.33366 8.66663H7.33366L7.33366 12.6666C7.33366 13.0348 7.63213 13.3333 8.00032 13.3333C8.36851 13.3333 8.66699 13.0348 8.66699 12.6666L8.66699 8.66663H12.667C13.0352 8.66663 13.3337 8.36815 13.3337 7.99996C13.3337 7.63177 13.0352 7.33329 12.667 7.33329H8.66699L8.66699 3.33329Z" fill="#7F8A94"/>
</g>
<defs>
<clipPath id="clip0_16344_30754">
<rect width="16" height="16" fill="white"/>
</clipPath>
</defs>
</svg>
