<svg width="28" height="28" viewBox="0 0 28 28" fill="none" xmlns="http://www.w3.org/2000/svg">
<path d="M16.8047 2H8C6.34315 2 5 3.34315 5 5V22C5 23.6569 6.34315 25 8 25H20C21.6569 25 23 23.6569 23 22V8.1953C23 7.48037 22.716 6.79473 22.2105 6.28921L18.7107 2.78951C18.2052 2.284 17.5196 2 16.8047 2Z" fill="#88A6FF"/>
<mask id="mask0_64_65495" style="mask-type:luminance" maskUnits="userSpaceOnUse" x="5" y="2" width="18" height="23">
<path d="M16.8047 2H8C6.34315 2 5 3.34315 5 5V22C5 23.6569 6.34315 25 8 25H20C21.6569 25 23 23.6569 23 22V8.1953C23 7.48037 22.716 6.79473 22.2105 6.28921L18.7107 2.78951C18.2052 2.284 17.5196 2 16.8047 2Z" fill="white"/>
</mask>
<g mask="url(#mask0_64_65495)">
<path d="M31.4591 -14.0066C33.1161 -14.0066 34.4591 -12.6636 34.4591 -11.0066V5.99339C34.4591 7.65038 33.1161 8.99339 31.4591 8.99339H19.4591C17.8021 8.99339 16.4591 7.65038 16.4591 5.99339V-11.0066C16.4591 -12.6636 17.8021 -14.0066 19.4591 -14.0066H31.4591Z" fill="#4472FF"/>
</g>
<path d="M11.0703 14H16.9404" stroke="white" stroke-width="1.4" stroke-linecap="round" stroke-linejoin="round"/>
<path d="M14 11.0625L14 16.9326" stroke="white" stroke-width="1.4" stroke-linecap="round" stroke-linejoin="round"/>
<path d="M25.1922 16.608L23.8845 15.3059C23.4747 14.8978 22.8108 14.8981 22.401 15.3065L17.5218 20.1726C17.2431 20.4505 17.0794 20.8226 17.0631 21.2151L17.0007 22.6829C16.9818 23.1284 17.3397 23.4999 17.7868 23.4999L19.2315 23.5C19.6555 23.5 20.0616 23.3294 20.3576 23.0268L25.2017 18.0774C25.6031 17.6677 25.5989 17.0126 25.1922 16.608Z" fill="#4472FF"/>
</svg>
