<svg width="28" height="28" viewBox="0 0 28 28" fill="none" xmlns="http://www.w3.org/2000/svg">
<rect x="5" y="2" width="18" height="17" rx="2.45922" fill="#88A6FF"/>
<path d="M10.613 6.6868L12.0511 11.1736C12.1524 11.4895 12.5993 11.4895 12.7006 11.1736L14.1387 6.6868L15.5777 11.0364C15.6809 11.3482 16.1221 11.3482 16.2253 11.0364L17.6643 6.6868" stroke="white" stroke-width="1.2" stroke-linecap="round" stroke-linejoin="round"/>
<path d="M9.76929 7.85086L18.2308 7.85086" stroke="white" stroke-width="1.2" stroke-linecap="round"/>
<path d="M3.5 14.2608C3.5 13.2234 4.59297 12.5497 5.51974 13.0159L12.895 16.7254C13.5902 17.0751 14.4098 17.0751 15.105 16.7254L22.4803 13.0159C23.407 12.5497 24.5 13.2234 24.5 14.2608V22.5408C24.5 23.899 23.399 25 22.0408 25H5.95923C4.60103 25 3.5 23.899 3.5 22.5408V14.2608Z" fill="#4472FF"/>
</svg>
