<svg width="28" height="28" viewBox="0 0 28 28" fill="none" xmlns="http://www.w3.org/2000/svg">
<path d="M14.0039 25.5C20.3552 25.5 25.5039 20.3513 25.5039 14C25.5039 7.64872 20.3552 2.5 14.0039 2.5C7.65263 2.5 2.50391 7.64872 2.50391 14C2.50391 20.3513 7.65263 25.5 14.0039 25.5Z" fill="#35C27B"/>
<path d="M4.28167 25.4543L11.3842 23.5489L4.45281 16.6094L2.54969 23.7203C2.26793 24.773 3.23015 25.7364 4.28167 25.4543Z" fill="#35C27B"/>
<path d="M17.5677 16.2096L15.2841 15.7526C14.9363 15.6849 14.5847 15.8138 14.3661 16.0931L13.3394 17.4111C12.0615 16.6839 10.984 15.6097 10.2543 14.3346L11.4798 13.5715C11.8057 13.369 11.9722 12.9938 11.9041 12.615L11.4471 10.1008C11.3661 9.65827 10.9811 9.33723 10.5316 9.33723H8.24677C7.73362 9.33723 7.31592 9.75496 7.31592 10.2681C7.31592 11.6973 7.60968 13.079 8.18893 14.3743C9.19208 16.6195 10.9774 18.4168 13.2159 19.4365C14.5281 20.034 15.9312 20.3372 17.3851 20.3372C17.8982 20.3372 18.3159 19.9199 18.3159 19.4068V17.1219C18.3159 16.679 18.0011 16.2955 17.5677 16.2096Z" fill="white"/>
<path d="M14.3159 8.33723C17.2389 8.33723 19.6085 10.7096 19.6085 13.636" stroke="white" stroke-width="1.4" stroke-linecap="round"/>
<path d="M14.3159 10.3372C15.9728 10.3372 17.3159 11.6804 17.3159 13.3372" stroke="white" stroke-width="1.4" stroke-linecap="round"/>
</svg>
