<svg width="28" height="28" viewBox="0 0 28 28" fill="none" xmlns="http://www.w3.org/2000/svg">
<path d="M22.1936 5H5.8064C4.25647 5 3 6.27276 3 7.84278V22.1572C3 23.7272 4.25647 25 5.8064 25H22.1936C23.7435 25 25 23.7272 25 22.1572V7.84278C25 6.27276 23.7435 5 22.1936 5Z" fill="#79D5CF"/>
<path d="M11.8594 19.3953L16.8594 14.3953" stroke="white" stroke-width="1.4" stroke-linecap="round" stroke-linejoin="round"/>
<path d="M12 15.5984C12.5523 15.5984 13 15.1507 13 14.5984C13 14.0462 12.5523 13.5984 12 13.5984C11.4477 13.5984 11 14.0462 11 14.5984C11 15.1507 11.4477 15.5984 12 15.5984Z" fill="white"/>
<path d="M16.5625 20.3719C17.1148 20.3719 17.5625 19.9242 17.5625 19.3719C17.5625 18.8196 17.1148 18.3719 16.5625 18.3719C16.0102 18.3719 15.5625 18.8196 15.5625 19.3719C15.5625 19.9242 16.0102 20.3719 16.5625 20.3719Z" fill="white"/>
<path d="M3 10V7.91745C3 6.31332 4.25379 5 5.80525 5H22.1948C23.7372 5 25 6.30394 25 7.91745V10" fill="#08B6AC"/>
<path d="M10 3.99844V8.00156C10 8.5521 9.5514 9 9 9C8.4486 9 8 8.5521 8 8.00156V3.99844C8 3.4479 8.4486 3 9 3C9.5514 3 10 3.4479 10 3.99844Z" fill="#08B6AC"/>
<path d="M20 3.99844V8.00156C20 8.5521 19.5514 9 19 9C18.4486 9 18 8.5521 18 8.00156V3.99844C18 3.4479 18.4486 3 19 3C19.5514 3 20 3.4479 20 3.99844Z" fill="#08B6AC"/>
</svg>
