<svg width="28" height="28" viewBox="0 0 28 28" fill="none" xmlns="http://www.w3.org/2000/svg">
<path d="M16.0543 25.1401C22.094 25.1401 27.0001 20.2362 27.0001 14.1992C27.0001 8.16224 22.094 3.26817 16.0543 3.26817C10.0147 3.26817 5.11841 8.17201 5.11841 14.209C5.11841 20.246 10.0244 25.1498 16.0641 25.1498L16.0543 25.1401Z" fill="#FF8F98"/>
<path d="M11.9408 24.9302C17.9778 24.9302 22.8816 20.0264 22.8816 13.9894C22.8816 7.95243 17.9778 3.05836 11.9408 3.05836C5.90383 3.05836 1 7.9622 1 13.9992C1 20.0362 5.90383 24.94 11.9408 24.94V24.9302Z" fill="#FF515E"/>
<path d="M9.0354 16.9838L15.0592 10.96" stroke="white" stroke-width="1.4" stroke-linecap="round" stroke-linejoin="round"/>
<path d="M9.20476 12.4095C9.87013 12.4095 10.4095 11.8701 10.4095 11.2048C10.4095 10.5394 9.87013 10 9.20476 10C8.53939 10 8 10.5394 8 11.2048C8 11.8701 8.53939 12.4095 9.20476 12.4095Z" fill="white"/>
<path d="M14.7015 18.1604C15.3668 18.1604 15.9062 17.621 15.9062 16.9556C15.9062 16.2902 15.3668 15.7509 14.7015 15.7509C14.0361 15.7509 13.4967 16.2902 13.4967 16.9556C13.4967 17.621 14.0361 18.1604 14.7015 18.1604Z" fill="white"/>
</svg>
