<svg width="28" height="28" viewBox="0 0 28 28" fill="none" xmlns="http://www.w3.org/2000/svg">
<g clip-path="url(#clip0_64_65532)">
<path d="M19.7501 4.04107C21.4846 5.04255 22.9275 6.47966 23.9359 8.21014C24.9443 9.94062 25.4833 11.9045 25.4995 13.9073C25.5156 15.91 25.0085 17.8823 24.0281 19.6289C23.0478 21.3754 21.6284 22.8357 19.9103 23.865C18.1922 24.8944 16.235 25.4572 14.2326 25.4977C12.2301 25.5382 10.2518 25.0551 8.4935 24.0961C6.73516 23.1371 5.25778 21.7355 4.2076 20.03C3.15742 18.3246 2.57086 16.3744 2.50599 14.3726L2.50024 14L2.50599 13.6274C2.58341 11.2345 3.40574 8.92542 4.85828 7.02223C6.31082 5.11904 8.32114 3.71666 10.6088 3.01067C10.5148 3.50921 10.5319 4.02236 10.6589 4.51354C10.7859 5.00472 11.0196 5.46186 11.3435 5.85237C11.6673 6.24288 12.0733 6.55717 12.5325 6.77283C12.9917 6.98849 13.4929 7.10021 14.0002 7.10005C14.3052 7.10005 14.5977 6.97889 14.8133 6.76323C15.029 6.54756 15.1502 6.25505 15.1502 5.95006C15.1502 5.64506 15.029 5.35255 14.8133 5.13689C14.5977 4.92122 14.3052 4.80006 14.0002 4.80006L13.8656 4.79201C13.5746 4.75739 13.3077 4.61294 13.1196 4.38817C12.9315 4.1634 12.8363 3.87528 12.8534 3.58267C12.8706 3.29007 12.9989 3.01506 13.212 2.81385C13.4251 2.61264 13.7071 2.5004 14.0002 2.50008C15.9851 2.50008 17.9711 3.01412 19.7501 4.04107ZM17.6802 16.6289C17.4624 16.4154 17.1687 16.2972 16.8638 16.3002C16.5588 16.3032 16.2676 16.4273 16.0541 16.645C15.7864 16.9183 15.4668 17.1354 15.1141 17.2837C14.7615 17.4319 14.3827 17.5082 14.0002 17.5082C13.6176 17.5082 13.2389 17.4319 12.8862 17.2837C12.5335 17.1354 12.214 16.9183 11.9463 16.645C11.7317 16.4323 11.442 16.3126 11.1399 16.3117C10.8377 16.3109 10.5474 16.429 10.3316 16.6405C10.1159 16.8521 9.99202 17.14 9.98687 17.4421C9.98172 17.7442 10.0957 18.0362 10.3041 18.255C10.7859 18.7467 11.361 19.1373 11.9957 19.4039C12.6303 19.6706 13.3118 19.8079 14.0002 19.8079C14.6886 19.8079 15.3701 19.6706 16.0047 19.4039C16.6394 19.1373 17.2144 18.7467 17.6963 18.255C17.9097 18.0372 18.028 17.7436 18.0249 17.4386C18.0219 17.1337 17.8979 16.8424 17.6802 16.6289ZM10.5617 10.55L10.4157 10.5581C10.1246 10.5927 9.85774 10.7372 9.66961 10.9619C9.48148 11.1867 9.38628 11.4748 9.40346 11.7674C9.42063 12.06 9.54889 12.335 9.76203 12.5362C9.97517 12.7375 10.2571 12.8497 10.5502 12.85L10.6962 12.842C10.9873 12.8073 11.2542 12.6629 11.4423 12.4381C11.6304 12.2134 11.7256 11.9252 11.7084 11.6326C11.6913 11.34 11.563 11.065 11.3499 10.8638C11.1367 10.6626 10.8548 10.5504 10.5617 10.55ZM17.4617 10.55L17.3156 10.5581C17.0246 10.5927 16.7577 10.7372 16.5696 10.9619C16.3814 11.1867 16.2862 11.4748 16.3034 11.7674C16.3206 12.06 16.4489 12.335 16.662 12.5362C16.8751 12.7375 17.1571 12.8497 17.4502 12.85L17.5962 12.842C17.8873 12.8073 18.1541 12.6629 18.3423 12.4381C18.5304 12.2134 18.6256 11.9252 18.6084 11.6326C18.5912 11.34 18.463 11.065 18.2498 10.8638C18.0367 10.6626 17.7548 10.5504 17.4617 10.55Z" fill="#FFD874"/>
<path d="M22 27C24.7614 27 27 24.7614 27 22C27 19.2386 24.7614 17 22 17C19.2386 17 17 19.2386 17 22C17 24.7614 19.2386 27 22 27Z" fill="#F4A800"/>
<path d="M19.665 20.8177L20.6618 23.6893C20.7188 23.8536 20.9446 23.8536 21.0016 23.6893L21.9983 20.8177L22.9957 23.6015C23.0538 23.7635 23.2763 23.7635 23.3344 23.6015L24.3317 20.8177" fill="#F4A800"/>
<path d="M19.665 20.8177L20.6618 23.6893C20.7188 23.8536 20.9446 23.8536 21.0016 23.6893L21.9983 20.8177L22.9957 23.6015C23.0538 23.7635 23.2763 23.7635 23.3344 23.6015L24.3317 20.8177" stroke="white" stroke-width="0.777778" stroke-linecap="round" stroke-linejoin="round"/>
<path d="M19.2222 21.5486H24.7777H19.2222Z" fill="#F4A800"/>
<path d="M19.2222 21.5486H24.7777" stroke="white" stroke-width="0.777778" stroke-linecap="round"/>
</g>
<defs>
<clipPath id="clip0_64_65532">
<rect width="28" height="28" fill="white"/>
</clipPath>
</defs>
</svg>
