<svg width="28" height="28" viewBox="0 0 28 28" fill="none" xmlns="http://www.w3.org/2000/svg">
<path d="M23.1213 5H4.88134C3.29076 5 2.00134 6.20883 2.00134 7.7V20.3C2.00134 21.7912 3.29076 23 4.88134 23H23.1213C24.7119 23 26.0013 21.7912 26.0013 20.3V7.7C26.0013 6.20883 24.7119 5 23.1213 5Z" fill="#FFC183"/>
<path d="M2.00134 7.5C2.00134 6.11918 3.29072 5 4.88134 5H23.1213C24.712 5 26.0013 6.11918 26.0013 7.5V10H2.00134V7.5Z" fill="#EE8B28"/>
<path d="M4.98191 18.2266H8.9042C9.44575 18.2266 9.88477 18.6631 9.88477 19.2016C9.88477 19.7401 9.44575 20.1766 8.9042 20.1766H4.98191C4.44036 20.1766 4.00134 19.7401 4.00134 19.2016C4.00134 18.6631 4.44036 18.2266 4.98191 18.2266Z" fill="#EE8B28"/>
<path opacity="0.6" d="M19.3922 16.8456C18.8899 16.3253 18.1849 16 17.4022 16C15.8778 16 14.642 17.2288 14.642 18.7446C14.642 20.2604 15.8778 21.4892 17.4022 21.4892C18.1849 21.4892 18.8899 21.1639 19.3922 20.6436C18.9161 20.1504 18.6219 19.4822 18.6219 18.7446C18.6219 18.007 18.9161 17.3388 19.3922 16.8456Z" fill="#EE8B28"/>
<path d="M21.3663 16C20.5837 16 19.8787 16.3253 19.3763 16.8456C19.8525 17.3388 20.1466 18.007 20.1466 18.7446C20.1466 19.4822 19.8525 20.1504 19.3763 20.6436C19.8787 21.1639 20.5837 21.4892 21.3663 21.4892C22.8908 21.4892 24.1266 20.2604 24.1266 18.7446C24.1266 17.2288 22.8908 16 21.3663 16Z" fill="#EE8B28"/>
<path opacity="0.6" d="M19.381 16.8203C18.9049 17.3135 18.6107 17.9817 18.6107 18.7193C18.6107 19.4569 18.9049 20.1251 19.381 20.6183C19.8572 20.1251 20.1513 19.4569 20.1513 18.7193C20.1513 17.9817 19.8572 17.3135 19.381 16.8203Z" fill="#EE8B28"/>
</svg>
