<svg width="28" height="28" viewBox="0 0 28 28" fill="none" xmlns="http://www.w3.org/2000/svg">
<path d="M21.646 9H6.35402C5.05393 9 4 10.1924 4 11.6632V22.3368C4 23.8076 5.05393 25 6.35402 25H21.646C22.9461 25 24 23.8076 24 22.3368V11.6632C24 10.1924 22.9461 9 21.646 9Z" fill="#88A6FF"/>
<path d="M23.2941 7H4.70591C3.76376 7 3 7.75797 3 8.69298V10.307C3 11.242 3.76376 12 4.70591 12H23.2941C24.2362 12 25 11.242 25 10.307V8.69298C25 7.75797 24.2362 7 23.2941 7Z" fill="#4472FF"/>
<path d="M7.92995 7.94028L10.042 8.97897C10.042 8.97897 10.0864 8.99719 10.113 8.99719H18.0821C18.1442 8.99719 18.2064 8.96075 18.233 8.90608C18.5791 8.16807 18.2774 7.28427 17.5585 6.92893L10.1219 3.25709C8.86175 2.63752 7.35312 3.17508 6.74967 4.46889C6.14621 5.76269 6.6698 7.3116 7.92995 7.93117V7.94028Z" fill="#4472FF"/>
<path d="M9.91395 8.99987H17.8831C17.8831 8.99987 17.9363 8.99987 17.954 8.98164L20.0661 7.94296C21.3263 7.32339 21.8587 5.76536 21.2464 4.48067C20.643 3.18687 19.1255 2.64019 17.8742 3.26887L10.4464 6.93161C9.72759 7.28695 9.42586 8.17074 9.77196 8.90875C9.79858 8.96342 9.8607 8.99987 9.92282 8.99987H9.91395Z" fill="#4472FF"/>
<path d="M14.2488 15C14.2488 17.3241 14.2488 18.1759 14.2488 20.5" stroke="white" stroke-width="1.4" stroke-linecap="round"/>
<path d="M17 17.7512C14.6759 17.7512 13.8241 17.7512 11.5 17.7512" stroke="white" stroke-width="1.4" stroke-linecap="round"/>
</svg>
