<svg width="28" height="28" viewBox="0 0 28 28" fill="none" xmlns="http://www.w3.org/2000/svg">
<path d="M14 2.5C13.0202 2.5 12.0679 2.62159 11.1578 2.85084C10.415 3.03795 10.0314 3.67653 9.90803 4.20736C9.76187 4.83615 9.36548 5.40259 8.76111 5.74993C8.20544 6.06929 7.57719 6.14431 6.99777 6.0083C6.46524 5.8833 5.72171 5.94283 5.22411 6.5209C4.29898 7.59566 3.56919 8.84302 3.09035 10.2084C2.80448 11.0235 3.2474 11.7576 3.71506 12.1411C4.25488 12.5839 4.59682 13.2518 4.59682 14C4.59682 14.7482 4.25488 15.4161 3.71506 15.8589C3.2474 16.2424 2.80448 16.9765 3.09035 17.7916C3.56914 19.1568 4.29881 20.4041 5.2238 21.4787C5.72143 22.0569 6.46506 22.1164 6.99762 21.9914C7.57708 21.8553 8.20539 21.9303 8.76111 22.2497C9.36554 22.5971 9.76196 23.1636 9.90807 23.7925C10.0314 24.3234 10.415 24.9621 11.1579 25.1492C12.0679 25.3784 13.0203 25.5 14 25.5C14.9798 25.5 15.9321 25.3784 16.8423 25.1492C17.5851 24.962 17.9687 24.3234 18.092 23.7925C18.2381 23.1636 18.6346 22.5971 19.239 22.2497C19.7947 21.9303 20.423 21.8553 21.0024 21.9913C21.535 22.1164 22.2786 22.0569 22.7762 21.4787C23.7012 20.404 24.4309 19.1568 24.9096 17.7916C25.1955 16.9764 24.7526 16.2424 24.2849 15.8589C23.7451 15.4161 23.4032 14.7482 23.4032 14C23.4032 13.2518 23.7451 12.5839 24.2849 12.1411C24.7526 11.7576 25.1955 11.0236 24.9096 10.2084C24.4308 8.84304 23.701 7.5957 22.7759 6.52094C22.2783 5.94288 21.5348 5.88334 21.0023 6.00832C20.4229 6.14431 19.7947 6.06928 19.239 5.74993C18.6347 5.40259 18.2383 4.83616 18.0921 4.20738C17.9687 3.67656 17.5852 3.038 16.8424 2.85089C15.9323 2.62161 14.9798 2.5 14 2.5Z" fill="#A8B3BD"/>
<circle cx="3.5" cy="3.5" r="3.5" transform="matrix(-1 0 0 1 17.5 10.5)" fill="white"/>
<path d="M22 27C24.7614 27 27 24.7614 27 22C27 19.2386 24.7614 17 22 17C19.2386 17 17 19.2386 17 22C17 24.7614 19.2386 27 22 27Z" fill="#707982"/>
<path d="M19.6649 20.8177L20.6616 23.6893C20.7187 23.8536 20.9445 23.8536 21.0015 23.6893L21.9982 20.8177L22.9956 23.6015C23.0536 23.7635 23.2762 23.7635 23.3342 23.6015L24.3316 20.8177" stroke="white" stroke-width="0.777778" stroke-linecap="round" stroke-linejoin="round"/>
<path d="M19.2222 21.5486H24.7777" stroke="white" stroke-width="0.777778" stroke-linecap="round"/>
</svg>
