<svg width="28" height="28" viewBox="0 0 28 28" fill="none" xmlns="http://www.w3.org/2000/svg">
<path d="M19.673 2H8.32705C6.48957 2 5 3.45994 5 5.26087V23.7391C5 25.5401 6.48957 27 8.32705 27H19.673C21.5104 27 23 25.5401 23 23.7391V5.26087C23 3.45994 21.5104 2 19.673 2Z" fill="#8EA5CE"/>
<path d="M16.7883 23.5761H11.2117C10.8186 23.5761 10.5 23.8947 10.5 24.2877V24.2877C10.5 24.6807 10.8186 24.9993 11.2117 24.9993H16.7883C17.1814 24.9993 17.5 24.6807 17.5 24.2877C17.5 23.8947 17.1814 23.5761 16.7883 23.5761Z" fill="#576C91"/>
<path d="M14 5.99797C14.5523 5.99797 15 5.55026 15 4.99797C15 4.44569 14.5523 3.99797 14 3.99797C13.4477 3.99797 13 4.44569 13 4.99797C13 5.55026 13.4477 5.99797 14 5.99797Z" fill="#576C91"/>
<path d="M22 27C24.7614 27 27 24.7614 27 22C27 19.2386 24.7614 17 22 17C19.2386 17 17 19.2386 17 22C17 24.7614 19.2386 27 22 27Z" fill="#425474"/>
<path d="M19.6649 20.8177L20.6616 23.6893C20.7187 23.8536 20.9445 23.8536 21.0015 23.6893L21.9982 20.8177L22.9956 23.6015C23.0536 23.7635 23.2762 23.7635 23.3342 23.6015L24.3316 20.8177" stroke="white" stroke-width="0.777778" stroke-linecap="round" stroke-linejoin="round"/>
<path d="M19.2222 21.5486H24.7777" stroke="white" stroke-width="0.777778" stroke-linecap="round"/>
</svg>
