<svg width="28" height="28" viewBox="0 0 28 28" fill="none" xmlns="http://www.w3.org/2000/svg">
<path d="M14 14C17.0376 14 19.5 11.5376 19.5 8.5C19.5 5.46243 17.0376 3 14 3C10.9624 3 8.5 5.46243 8.5 8.5C8.5 11.5376 10.9624 14 14 14Z" fill="#FFD874"/>
<path d="M12.5399 13H15.4601C20.1718 13 24 16.8492 24 21.5867C24 23.4702 22.4785 25 20.6053 25H7.39468C5.52147 25 4 23.4702 4 21.5867C4 16.8492 7.82822 13 12.5399 13Z" fill="#FFD874"/>
<path d="M22 27C24.7614 27 27 24.7614 27 22C27 19.2386 24.7614 17 22 17C19.2386 17 17 19.2386 17 22C17 24.7614 19.2386 27 22 27Z" fill="#F4A800"/>
<path d="M19.6649 20.8177L20.6616 23.6893C20.7187 23.8536 20.9445 23.8536 21.0015 23.6893L21.9982 20.8177L22.9956 23.6015C23.0536 23.7635 23.2762 23.7635 23.3342 23.6015L24.3316 20.8177" stroke="white" stroke-width="0.777778" stroke-linecap="round" stroke-linejoin="round"/>
<path d="M19.2222 21.5486H24.7777" stroke="white" stroke-width="0.777778" stroke-linecap="round"/>
</svg>
