<svg width="28" height="28" viewBox="0 0 28 28" fill="none" xmlns="http://www.w3.org/2000/svg">
<g clip-path="url(#clip0_323_701410)">
<path d="M19.673 2H8.32705C6.48957 2 5 3.45994 5 5.26087V23.7391C5 25.5401 6.48957 27 8.32705 27H19.673C21.5104 27 23 25.5401 23 23.7391V5.26087C23 3.45994 21.5104 2 19.673 2Z" fill="#79D5CF"/>
<path d="M16.7883 23.5761H11.2117C10.8186 23.5761 10.5 23.8947 10.5 24.2877V24.2877C10.5 24.6807 10.8186 24.9993 11.2117 24.9993H16.7883C17.1814 24.9993 17.5 24.6807 17.5 24.2877C17.5 23.8947 17.1814 23.5761 16.7883 23.5761Z" fill="#4AA59F"/>
<path d="M14 5.99799C14.5523 5.99799 15 5.55027 15 4.99799C15 4.4457 14.5523 3.99799 14 3.99799C13.4477 3.99799 13 4.4457 13 4.99799C13 5.55027 13.4477 5.99799 14 5.99799Z" fill="#4AA59F"/>
<path d="M14.0234 10.1172L14.0234 17.8555" stroke="white" stroke-width="1.4" stroke-linecap="round"/>
<path d="M11 12.4527L13.7563 10.2064C13.9037 10.0863 14.1152 10.0865 14.2624 10.2069L17.007 12.4527" stroke="white" stroke-width="1.4" stroke-linecap="round"/>
<path d="M22 27C24.7614 27 27 24.7614 27 22C27 19.2386 24.7614 17 22 17C19.2386 17 17 19.2386 17 22C17 24.7614 19.2386 27 22 27Z" fill="#008D85"/>
<path d="M19.665 20.8177L20.6618 23.6893C20.7188 23.8536 20.9446 23.8536 21.0016 23.6893L21.9983 20.8177L22.9957 23.6015C23.0538 23.7635 23.2763 23.7635 23.3344 23.6015L24.3317 20.8177" stroke="white" stroke-width="0.777778" stroke-linecap="round" stroke-linejoin="round"/>
<path d="M19.2222 21.5486H24.7777" stroke="white" stroke-width="0.777778" stroke-linecap="round"/>
</g>
<defs>
<clipPath id="clip0_323_701410">
<rect width="28" height="28" fill="white"/>
</clipPath>
</defs>
</svg>
