<svg width="28" height="28" viewBox="0 0 28 28" fill="none" xmlns="http://www.w3.org/2000/svg">
<path d="M13.504 23.0952C13.504 23.6474 13.9548 24.0952 14.5108 24.0952H23.4972C24.0533 24.0952 24.504 23.6474 24.504 23.0952C24.504 22.5429 24.0533 22.0952 23.4972 22.0952H14.5108C13.9548 22.0952 13.504 22.5429 13.504 23.0952Z" fill="#707982"/>
<path d="M21.3334 11.8811C22.2303 10.9649 22.221 9.50013 21.3123 8.59535L18.3906 5.68409C17.4749 4.77149 15.9917 4.77207 15.0761 5.68525L4.17471 16.5659C4.00543 16.7348 3.85703 16.9204 3.72717 17.1172L10.0059 23.374C10.1858 23.2487 10.3552 23.1067 10.5106 22.9477L21.3334 11.8811Z" fill="#A8B3BD"/>
<path d="M3.14108 18.8911L3.0016 22.173C2.95938 23.1692 3.75899 23.9998 4.75789 23.9999L7.98564 24.0001C8.71038 24.0001 9.41136 23.7761 9.99704 23.3682L3.71829 17.1115C3.37058 17.6383 3.16756 18.252 3.14108 18.8911Z" fill="#707982"/>
</svg>
