<svg width="28" height="28" viewBox="0 0 28 28" fill="none" xmlns="http://www.w3.org/2000/svg">
<path d="M16.8047 2H8C6.34315 2 5 3.34315 5 5V22C5 23.6569 6.34315 25 8 25H20C21.6569 25 23 23.6569 23 22V8.1953C23 7.48038 22.716 6.79474 22.2105 6.28921L18.7107 2.78951C18.2052 2.284 17.5196 2 16.8047 2Z" fill="#A687FF"/>
<path d="M11.1953 2H20C21.6569 2 23 3.34315 23 5V22C23 23.6569 21.6569 25 20 25H8C6.34315 25 5 23.6569 5 22V8.1953C5 7.48038 5.284 6.79474 5.78953 6.28921L9.28928 2.78951C9.7948 2.284 10.4804 2 11.1953 2Z" fill="#A687FF"/>
<path d="M14 15.7031C16.7614 15.7031 19 13.4645 19 10.7031C19 7.9417 16.7614 5.70312 14 5.70312C11.2386 5.70312 9 7.9417 9 10.7031C9 13.4645 11.2386 15.7031 14 15.7031Z" fill="#A687FF" stroke="white" stroke-width="1.4" stroke-miterlimit="10"/>
<path d="M13.9977 15.7031C15.0648 15.7031 15.9299 13.4645 15.9299 10.7031C15.9299 7.9417 15.0648 5.70312 13.9977 5.70312C12.9306 5.70312 12.0656 7.9417 12.0656 10.7031C12.0656 13.4645 12.9306 15.7031 13.9977 15.7031Z" fill="#A687FF" stroke="white" stroke-width="1.4" stroke-miterlimit="10"/>
<path d="M9 10.7067H19" stroke="white" stroke-width="1.4" stroke-miterlimit="10"/>
<path d="M22 27C24.7614 27 27 24.7614 27 22C27 19.2386 24.7614 17 22 17C19.2386 17 17 19.2386 17 22C17 24.7614 19.2386 27 22 27Z" fill="#8155F8"/>
<path d="M21.9973 23.9331V20.0816" stroke="white" stroke-width="1.11111" stroke-linecap="round" stroke-linejoin="round"/>
<path d="M20.0642 22L23.9156 22" stroke="white" stroke-width="1.11111" stroke-linecap="round" stroke-linejoin="round"/>
</svg>
