<svg width="28" height="28" viewBox="0 0 28 28" fill="none" xmlns="http://www.w3.org/2000/svg">
<path d="M22.0487 2.60126C21.8405 2.25584 21.4728 2.03225 21.0703 2.00674C14.9541 1.61897 9.49319 18.0957 9.49319 18.0957L8.27979 20.8235L9.75776 21.7267L11.2357 22.6299L13.0969 20.2944C13.0969 20.2944 25.2164 7.85867 22.0487 2.60126Z" fill="#79D5CF"/>
<path d="M14.8676 7.79194L4.33016 6.57854C3.7189 6.50555 3.12588 6.7975 2.80657 7.32665L2.58761 7.68246C2.14056 8.42145 2.36865 9.38852 3.11676 9.84469L10.9719 14.6162C11.6653 15.0359 12.5685 14.8625 13.0521 14.2056L15.9533 10.2826C16.674 9.31553 16.0719 7.92879 14.8676 7.78282V7.79194Z" fill="#79D5CF"/>
<path d="M19.4279 10.5691L25.3581 19.3639C25.7047 19.8748 25.7139 20.5317 25.3946 21.0609L25.1756 21.4167C24.7286 22.1557 23.7615 22.3929 23.0134 21.9458L15.1582 17.1743C14.4648 16.7547 14.2094 15.8697 14.5652 15.1398L16.7092 10.7606C17.2383 9.67497 18.7437 9.57461 19.4188 10.5691H19.4279Z" fill="#79D5CF"/>
<path d="M10.9429 19.5227L10.9794 19.4589H10.9064L10.8699 19.395L10.8334 19.4498L5.82471 19.1396C5.3138 19.1122 4.83027 19.3585 4.55657 19.7964L4.42884 20.0063C4.1004 20.5354 4.27374 21.2379 4.8029 21.5572L8.05992 23.537L8.57995 23.8563L11.837 25.8361C12.3661 26.1645 13.0686 25.9912 13.3879 25.462L13.5157 25.2522C13.7802 24.8143 13.7802 24.2669 13.5157 23.8289L10.9338 19.5227H10.9429Z" fill="#79D5CF"/>
<path d="M20.45 6.4737C20.0633 5.72189 19.3327 5.2444 18.4889 5.19191" stroke="white" stroke-width="1.4" stroke-linecap="round"/>
</svg>
