<svg width="28" height="28" viewBox="0 0 28 28" fill="none" xmlns="http://www.w3.org/2000/svg">
<path d="M3 12.3872C3 11.6081 3.36927 10.875 3.99539 10.4111L12.0482 4.44583C13.2077 3.58694 14.7923 3.58694 15.9518 4.44583L24.0046 10.4111C24.6307 10.875 25 11.6081 25 12.3872V16.8378C25 18.196 23.899 19.297 22.5408 19.297H5.45923C4.10103 19.297 3 18.196 3 16.8378V12.3872Z" fill="#576C91"/>
<path d="M3 12.7773L7.80117 17.0451C8.25133 17.4453 8.83271 17.6664 9.43503 17.6664H18.565C19.1673 17.6664 19.7487 17.4453 20.1988 17.0451L25 12.7773V22.5408C25 23.899 23.899 25 22.5408 25H5.45923C4.10103 25 3 23.899 3 22.5408V12.7773Z" fill="#8EA5CE"/>
<path d="M11.25 11.25L14 14M14 14L16.75 11.25M14 14V8.5" stroke="white" stroke-width="1.4" stroke-linecap="round" stroke-linejoin="round"/>
</svg>
