<svg width="28" height="28" viewBox="0 0 28 28" fill="none" xmlns="http://www.w3.org/2000/svg">
<path d="M16.3325 3H11.6675C11.1608 3 10.75 3.43922 10.75 3.98103V24.019C10.75 24.5608 11.1608 25 11.6675 25H16.3325C16.8392 25 17.25 24.5608 17.25 24.019V3.98103C17.25 3.43922 16.8392 3 16.3325 3Z" fill="#FF8F98"/>
<path d="M3.39365 24.9984H8.05947C8.56597 24.9984 8.97656 24.5594 8.97656 24.0178V15.9493C8.97656 15.4078 8.56597 14.9688 8.05947 14.9688H3.39365C2.88716 14.9688 2.47656 15.4078 2.47656 15.9493V24.0178C2.47656 24.5594 2.88716 24.9984 3.39365 24.9984Z" fill="#FF8F98"/>
<path d="M19.941 24.9976H24.6059C25.1126 24.9976 25.5234 24.5584 25.5234 24.0166V12.3951C25.5234 11.8533 25.1126 11.4141 24.6059 11.4141H19.941C19.4342 11.4141 19.0234 11.8533 19.0234 12.3951V24.0166C19.0234 24.5584 19.4342 24.9976 19.941 24.9976Z" fill="#FF515E"/>
</svg>
