<svg width="28" height="28" viewBox="0 0 28 28" fill="none" xmlns="http://www.w3.org/2000/svg">
<path d="M19.673 2H8.32705C6.48957 2 5 3.45994 5 5.26087V23.7391C5 25.5401 6.48957 27 8.32705 27H19.673C21.5104 27 23 25.5401 23 23.7391V5.26087C23 3.45994 21.5104 2 19.673 2Z" fill="#A8B3BD"/>
<path d="M16.7883 23.5781H11.2117C10.8186 23.5781 10.5 23.8967 10.5 24.2897V24.2897C10.5 24.6827 10.8186 25.0013 11.2117 25.0013H16.7883C17.1814 25.0013 17.5 24.6827 17.5 24.2897C17.5 23.8967 17.1814 23.5781 16.7883 23.5781Z" fill="#707982"/>
<path d="M14 6C14.5523 6 15 5.55228 15 5C15 4.44772 14.5523 4 14 4C13.4477 4 13 4.44772 13 5C13 5.55228 13.4477 6 14 6Z" fill="#707982"/>
<path d="M10.3428 14.1397L10.3428 17.7812M14.0017 10.7812L14.0017 17.7812M17.6641 12.8339L17.6641 17.7812" stroke="white" stroke-width="1.6" stroke-linecap="round"/>
</svg>
