<svg width="28" height="28" viewBox="0 0 28 28" fill="none" xmlns="http://www.w3.org/2000/svg">
<g clip-path="url(#clip0_986_27812)">
<path d="M4 8.62008C4 8.16278 4.23668 7.73807 4.62558 7.4975L13.3056 2.12811C13.7311 1.86488 14.2689 1.86488 14.6944 2.12811L23.3744 7.4975C23.7633 7.73807 24 8.16278 24 8.62008V23.4785C24 24.2076 23.409 24.7985 22.68 24.7985H5.32C4.59098 24.7985 4 24.2076 4 23.4785V8.62008Z" fill="#FFC1E6"/>
<mask id="path-2-inside-1_986_27812" fill="white">
<path d="M9.93475 11.5312V15.879C9.93475 16.9659 10.2971 17.6181 11.2246 17.6181C12.326 17.6181 12.7173 17.0964 12.7173 15.6906V11.5312H14.1376V15.7775C14.1376 17.8355 13.0941 18.7196 11.2246 18.7196C9.39853 18.7196 8.5 17.85 8.5 15.7051V11.5312H9.93475Z"/>
<path d="M16.5727 9.77753H17.7466V11.5312H19.5001V12.6471H17.7466V14.3862H16.5727V12.6471H14.8191V11.5312H16.5727V9.77753Z"/>
</mask>
<path d="M9.93475 11.5312V15.879C9.93475 16.9659 10.2971 17.6181 11.2246 17.6181C12.326 17.6181 12.7173 17.0964 12.7173 15.6906V11.5312H14.1376V15.7775C14.1376 17.8355 13.0941 18.7196 11.2246 18.7196C9.39853 18.7196 8.5 17.85 8.5 15.7051V11.5312H9.93475Z" fill="#FF64C0"/>
<path d="M16.5727 9.77753H17.7466V11.5312H19.5001V12.6471H17.7466V14.3862H16.5727V12.6471H14.8191V11.5312H16.5727V9.77753Z" fill="#FF64C0"/>
<path d="M9.93475 11.5312H42.9347V-21.4688H9.93475V11.5312ZM12.7173 11.5312V-21.4688H-20.2827V11.5312H12.7173ZM14.1376 11.5312H47.1376V-21.4688H14.1376V11.5312ZM8.5 11.5312V-21.4688H-24.5V11.5312H8.5ZM16.5727 9.77753V-23.2225H-16.4273V9.77753H16.5727ZM17.7466 9.77753H50.7466V-23.2225H17.7466V9.77753ZM17.7466 11.5312H-15.2534V44.5312H17.7466V11.5312ZM19.5001 11.5312H52.5001V-21.4688H19.5001V11.5312ZM19.5001 12.6471V45.6471H52.5001V12.6471H19.5001ZM17.7466 12.6471V-20.3529H-15.2534V12.6471H17.7466ZM17.7466 14.3862V47.3862H50.7466V14.3862H17.7466ZM16.5727 14.3862H-16.4273V47.3862H16.5727V14.3862ZM16.5727 12.6471H49.5727V-20.3529H16.5727V12.6471ZM14.8191 12.6471H-18.1809V45.6471H14.8191V12.6471ZM14.8191 11.5312V-21.4688H-18.1809V11.5312H14.8191ZM16.5727 11.5312V44.5312H49.5727V11.5312H16.5727ZM-23.0653 11.5312V15.879H42.9347V11.5312H-23.0653ZM-23.0653 15.879C-23.0653 18.9912 -22.7515 27.4714 -16.9185 35.9141C-9.47753 46.6841 1.95569 50.6181 11.2246 50.6181V-15.3819C14.8391 -15.3819 19.6725 -14.7411 24.7959 -12.3064C30.1111 -9.78057 34.3653 -5.96836 37.3822 -1.6018C42.8022 6.24313 42.9347 13.8537 42.9347 15.879H-23.0653ZM11.2246 50.6181C16.4391 50.6181 29.3014 49.3132 38.5408 37.3017C45.8714 27.7716 45.7173 17.5789 45.7173 15.6906H-20.2827C-20.2827 15.208 -20.6325 5.97909 -13.7728 -2.93865C-5.00443 -14.3378 7.11143 -15.3819 11.2246 -15.3819V50.6181ZM45.7173 15.6906V11.5312H-20.2827V15.6906H45.7173ZM12.7173 44.5312H14.1376V-21.4688H12.7173V44.5312ZM-18.8624 11.5312V15.7775H47.1376V11.5312H-18.8624ZM-18.8624 15.7775C-18.8624 11.6056 -17.7611 2.23081 -9.55836 -5.70173C-1.56255 -13.4341 7.51952 -14.2804 11.2246 -14.2804V51.7196C16.7992 51.7196 27.3377 50.4312 36.3226 41.7423C45.5145 32.8532 47.1376 22.0074 47.1376 15.7775H-18.8624ZM11.2246 -14.2804C15.0053 -14.2804 25.0204 -13.3783 33.3086 -4.49315C41.1005 3.85997 41.5 13.1057 41.5 15.7051H-24.5C-24.5 20.4494 -23.6512 31.2023 -14.9535 40.5265C-5.75958 50.3826 5.6178 51.7196 11.2246 51.7196V-14.2804ZM41.5 15.7051V11.5312H-24.5V15.7051H41.5ZM16.5727 42.7775H17.7466V-23.2225H16.5727V42.7775ZM-15.2534 9.77753V11.5312H50.7466V9.77753H-15.2534ZM17.7466 44.5312H19.5001V-21.4688H17.7466V44.5312ZM-13.4999 11.5312V12.6471H52.5001V11.5312H-13.4999ZM19.5001 -20.3529H17.7466V45.6471H19.5001V-20.3529ZM-15.2534 12.6471V14.3862H50.7466V12.6471H-15.2534ZM17.7466 -18.6138H16.5727V47.3862H17.7466V-18.6138ZM49.5727 14.3862V12.6471H-16.4273V14.3862H49.5727ZM16.5727 -20.3529H14.8191V45.6471H16.5727V-20.3529ZM47.8191 12.6471V11.5312H-18.1809V12.6471H47.8191ZM14.8191 44.5312H16.5727V-21.4688H14.8191V44.5312ZM49.5727 11.5312V9.77753H-16.4273V11.5312H49.5727ZM8.5 44.5312H9.93475V-21.4688H8.5V44.5312Z" fill="#FF64C0" mask="url(#path-2-inside-1_986_27812)"/>
<path d="M21.1078 25.695C22.0318 25.695 22.8881 25.405 23.5906 24.911L24.9126 26.233C25.2039 26.5243 25.6762 26.5243 25.9675 26.233C26.2589 25.9417 26.2589 25.4694 25.9675 25.178L24.6456 23.8561C25.1395 23.1536 25.4295 22.2973 25.4295 21.3732C25.4295 18.9864 23.4946 17.0515 21.1078 17.0515C18.7209 17.0515 16.786 18.9864 16.786 21.3732C16.786 23.7601 18.7209 25.695 21.1078 25.695ZM23.9376 21.3732C23.9376 22.9361 22.6706 24.203 21.1078 24.203C19.5449 24.203 18.278 22.9361 18.278 21.3732C18.278 19.8104 19.5449 18.5434 21.1078 18.5434C22.6706 18.5434 23.9376 19.8104 23.9376 21.3732Z" fill="#C12883" stroke="#C12883" stroke-width="0.3" stroke-linecap="round" stroke-linejoin="round"/>
<path d="M23.9673 21.3764C23.9673 22.954 22.6884 24.2329 21.1108 24.2329C19.5332 24.2329 18.2543 22.954 18.2543 21.3764C18.2543 19.7988 19.5332 18.5199 21.1108 18.5199C22.6884 18.5199 23.9673 19.7988 23.9673 21.3764Z" fill="white" fill-opacity="0.2"/>
</g>
<defs>
<clipPath id="clip0_986_27812">
<rect width="28" height="28" fill="white"/>
</clipPath>
</defs>
</svg>
