<svg width="46" height="32" viewBox="0 0 46 32" fill="none" xmlns="http://www.w3.org/2000/svg">
<path d="M19.5614 0.538572L6.75524 2.37514C4.68128 2.67258 3.23159 4.59521 3.51727 6.66947L6.44844 27.9522C6.73412 30.0265 8.64699 31.4669 10.721 31.1694L23.5271 29.3329C25.601 29.0354 27.0507 27.1128 26.765 25.0385L23.8339 3.7558C23.5482 1.68154 21.6353 0.241137 19.5614 0.538572Z" fill="#E30084" fill-opacity="0.2"/>
<g opacity="0.5">
<path d="M19.8986 26.2445L13.3737 27.1803C12.9138 27.2462 12.5934 27.6801 12.658 28.1493L12.658 28.1493C12.7227 28.6185 13.1478 28.9454 13.6077 28.8795L20.1326 27.9437C20.5925 27.8778 20.9129 27.4439 20.8483 26.9747C20.7836 26.5055 20.3584 26.1786 19.8986 26.2445Z" fill="#E30084"/>
<path d="M13.7936 6.06501C14.417 5.97561 14.8513 5.38748 14.7637 4.75137C14.6761 4.11526 14.0997 3.67207 13.4764 3.76147C12.853 3.85087 12.4187 4.43901 12.5063 5.07511C12.5939 5.71122 13.1702 6.15441 13.7936 6.06501Z" fill="#E30084"/>
</g>
<path d="M39.245 2.66724L26.4388 0.830667C24.3649 0.533233 22.452 1.97363 22.1663 4.04789L19.2351 25.3306C18.9495 27.4049 20.3992 29.3275 22.4731 29.625L35.2792 31.4615C37.3532 31.759 39.2661 30.3186 39.5517 28.2443L42.4829 6.96157C42.7686 4.88731 41.3189 2.96467 39.245 2.66724Z" fill="#A8B3BD" fill-opacity="0.72"/>
<path d="M32.6256 27.4722L26.1008 26.5364C25.6409 26.4705 25.2157 26.7974 25.1511 27.2666L25.1511 27.2666C25.0864 27.7358 25.4068 28.1697 25.8667 28.2356L32.3916 29.1714C32.8515 29.2373 33.2767 28.9104 33.3413 28.4412C33.4059 27.972 33.0855 27.5381 32.6256 27.4722Z" fill="#707982"/>
<path d="M32.207 6.35689C32.8303 6.44629 33.4067 6.0031 33.4943 5.36699C33.5819 4.73089 33.1476 4.14275 32.5242 4.05335C31.9008 3.96395 31.3245 4.40715 31.2369 5.04325C31.1493 5.67936 31.5836 6.26749 32.207 6.35689Z" fill="#707982"/>
</svg>
